M48
METRIC,LZ,000.000
;FILE_FORMAT=3:3
;TYPE=PLATED
;Layer: PTH_Through
;EasyEDA v6.5.54, 2026-03-05 20:34:58
;aaf6dcb2cd2149daa33e195ad962b8fe,f330d47962804ca0b679ce51ac6e9e7f,10
;Gerber Generator version 0.2
;Holesize 1 = 0.306 mm
T01C0.306
;Holesize 2 = 0.850 mm
T02C0.850
;Holesize 3 = 0.901 mm
T03C0.901
;Holesize 4 = 0.914 mm
T04C0.914
;Holesize 5 = 0.915 mm
T05C0.915
;Holesize 6 = 1.000 mm
T06C1.000
;Holesize 7 = 3.000 mm
T07C3.000
%
G05
G90
T01
X070181Y033008
X055429Y012212
T02
X091443Y009652G85X091437Y009652
X076197Y022352G85X076203Y022352
X076197Y019812G85X076203Y019812
X076197Y017272G85X076203Y017272
X076197Y014732G85X076203Y014732
X076197Y012192G85X076203Y012192
X076197Y009652G85X076203Y009652
X076197Y024892G85X076203Y024892
X091443Y012192G85X091437Y012192
X091443Y014732G85X091437Y014732
X091443Y017272G85X091437Y017272
X091443Y019812G85X091437Y019812
X091443Y022352G85X091437Y022352
X091443Y024892G85X091437Y024892
T03
X071525Y048030
T04
X082550Y008692
X082550Y011232
X082550Y013772
X085090Y008692
X085090Y011232
X085090Y013772
T05
X053525Y048030
X071525Y007030
X053525Y007030
X084198Y038608G85X084204Y038608
X086738Y038608G85X086744Y038608
X089280Y038608G85X089282Y038608
X091818Y038608G85X091824Y038608
X084198Y031369G85X084204Y031369
X086738Y031369G85X086744Y031369
X089280Y031369G85X089282Y031369
X091818Y031369G85X091824Y031369
X076581Y036071G85X076581Y036065
X076581Y033531G85X076581Y033525
X076581Y030989G85X076581Y030987
X076708Y046993G85X076708Y046987
X076708Y044453G85X076708Y044447
X076708Y041911G85X076708Y041909
X062608Y053213G85X062614Y053213
X065148Y053213G85X065154Y053213
X046609Y020955
X046609Y026035
X011109Y026035
X011109Y020955
X043759Y011255
X041219Y011255
X038679Y011255
X036139Y011255
X033599Y011255
X031059Y011255
X015959Y012255
X026119Y012255
X021039Y012255
X084325Y045847G85X084331Y045847
X086865Y045847G85X086871Y045847
X089407Y045847G85X089409Y045847
X091945Y045847G85X091951Y045847
X054480Y053340G85X054486Y053340
X057020Y053340G85X057026Y053340
X070736Y053086G85X070742Y053086
X073276Y053086G85X073282Y053086
T06
X087940Y015002G85X088940Y015002
X087940Y017002G85X088940Y017002
T07
X081200Y017652
M30
