G04 Layer: BottomSilkscreenLayer*
G04 EasyEDA v6.5.54, 2026-03-05 20:34:58*
G04 aaf6dcb2cd2149daa33e195ad962b8fe,f330d47962804ca0b679ce51ac6e9e7f,10*
G04 Gerber Generator version 0.2*
G04 Scale: 100 percent, Rotated: No, Reflected: No *
G04 Dimensions in millimeters *
G04 leading zeros omitted , absolute positions ,4 integer and 5 decimal *
%FSLAX45Y45*%
%MOMM*%

%ADD10C,0.2032*%
%ADD11C,0.0196*%

%LPD*%
G36*
X4348886Y4390898D02*
G01*
X4348886Y4389221D01*
X4339336Y4388154D01*
X4308856Y4386376D01*
X4300169Y4384548D01*
X4280763Y4382770D01*
X4242765Y4376216D01*
X4230014Y4373372D01*
X4218178Y4370984D01*
X4194505Y4365193D01*
X4185412Y4362450D01*
X4175404Y4360164D01*
X4169918Y4358284D01*
X4156252Y4354271D01*
X4138066Y4347972D01*
X4131564Y4346346D01*
X4126179Y4343552D01*
X4123486Y4343552D01*
X4118000Y4340656D01*
X4102506Y4335322D01*
X4097070Y4332833D01*
X4079290Y4325366D01*
X4066997Y4319930D01*
X4045153Y4309668D01*
X4036060Y4305147D01*
X4008729Y4290720D01*
X4001414Y4286300D01*
X3995978Y4283456D01*
X3988663Y4278985D01*
X3984142Y4276648D01*
X3975506Y4270705D01*
X3974490Y4270705D01*
X3940403Y4247794D01*
X3919474Y4233011D01*
X3879900Y4201414D01*
X3877564Y4199077D01*
X3850233Y4174540D01*
X3832453Y4157421D01*
X3824732Y4147312D01*
X3823817Y4146397D01*
X3820007Y4140911D01*
X3812336Y4126636D01*
X3810508Y4116324D01*
X3812895Y4109161D01*
X3821429Y4103979D01*
X3836568Y4102201D01*
X3934968Y4103370D01*
X3948582Y4110126D01*
X3975912Y4122369D01*
X3980738Y4124960D01*
X3983024Y4124960D01*
X3990492Y4128414D01*
X3999585Y4132072D01*
X4013250Y4136999D01*
X4017822Y4139336D01*
X4024934Y4140606D01*
X4028744Y4142994D01*
X4035755Y4144213D01*
X4041495Y4146702D01*
X4053332Y4150309D01*
X4059732Y4151477D01*
X4066082Y4153966D01*
X4078833Y4157065D01*
X4087977Y4158792D01*
X4095242Y4161282D01*
X4104335Y4162399D01*
X4112564Y4164888D01*
X4123385Y4166006D01*
X4132579Y4168546D01*
X4145330Y4169664D01*
X4158996Y4172204D01*
X4174490Y4173372D01*
X4196334Y4176369D01*
X4296511Y4176369D01*
X4318355Y4173321D01*
X4333849Y4172254D01*
X4346600Y4169714D01*
X4358436Y4168597D01*
X4367580Y4166158D01*
X4378502Y4164990D01*
X4394860Y4161282D01*
X4404004Y4158742D01*
X4412183Y4157624D01*
X4420362Y4155033D01*
X4431334Y4152239D01*
X4453178Y4146042D01*
X4465929Y4141266D01*
X4483201Y4135729D01*
X4490720Y4132275D01*
X4492955Y4132275D01*
X4497781Y4129735D01*
X4511446Y4124706D01*
X4541520Y4111142D01*
X4557928Y4103166D01*
X4954981Y4102912D01*
X4960467Y4104741D01*
X4966106Y4107637D01*
X4969560Y4111498D01*
X4969408Y4123588D01*
X4964480Y4134358D01*
X4952390Y4152747D01*
X4936794Y4168292D01*
X4910328Y4192828D01*
X4887620Y4212031D01*
X4873955Y4223054D01*
X4851146Y4240174D01*
X4842967Y4245559D01*
X4841138Y4247489D01*
X4808372Y4269333D01*
X4803800Y4271670D01*
X4791049Y4279798D01*
X4785614Y4282643D01*
X4778298Y4287062D01*
X4772863Y4289958D01*
X4765548Y4294225D01*
X4745532Y4304538D01*
X4742789Y4306214D01*
X4738217Y4308043D01*
X4735525Y4309770D01*
X4697730Y4326991D01*
X4681728Y4333443D01*
X4676292Y4336288D01*
X4674514Y4336288D01*
X4664456Y4340148D01*
X4656988Y4343552D01*
X4654448Y4343603D01*
X4647184Y4347159D01*
X4644440Y4347210D01*
X4628946Y4352848D01*
X4617110Y4356455D01*
X4607102Y4359097D01*
X4604105Y4360722D01*
X4597095Y4361942D01*
X4581601Y4366361D01*
X4569764Y4369257D01*
X4546092Y4374438D01*
X4535119Y4376470D01*
X4523282Y4379061D01*
X4498238Y4382668D01*
X4484116Y4384497D01*
X4459528Y4387240D01*
X4432249Y4388967D01*
X4431588Y4390898D01*
G37*
G36*
X4278325Y4125671D02*
G01*
X4199077Y4125010D01*
X4189069Y4123182D01*
X4164431Y4121251D01*
X4151731Y4118711D01*
X4138574Y4117594D01*
X4132579Y4115765D01*
X4117086Y4113276D01*
X4097985Y4108500D01*
X4085234Y4106214D01*
X4081221Y4104030D01*
X4077004Y4103928D01*
X4069740Y4101134D01*
X4059732Y4098747D01*
X4044238Y4093210D01*
X4037888Y4091940D01*
X4034231Y4089654D01*
X4027881Y4088282D01*
X4024223Y4085996D01*
X4017822Y4084675D01*
X4014215Y4082186D01*
X4011777Y4082186D01*
X3995978Y4075023D01*
X3991406Y4073753D01*
X3988663Y4071467D01*
X3982872Y4070197D01*
X3980891Y4067810D01*
X3974744Y4066641D01*
X3972610Y4064050D01*
X3967378Y4062933D01*
X3965346Y4060444D01*
X3960114Y4059275D01*
X3958031Y4056786D01*
X3952748Y4055618D01*
X3951782Y4054144D01*
X3938574Y4047490D01*
X3931310Y4043121D01*
X3923080Y4038650D01*
X3912158Y4031538D01*
X3909466Y4030472D01*
X3888841Y4016603D01*
X3887470Y4016603D01*
X3867302Y4001566D01*
X3863187Y3998823D01*
X3833876Y3975455D01*
X3832047Y3973322D01*
X3820210Y3963568D01*
X3798519Y3943299D01*
X3775557Y3919575D01*
X3765550Y3907840D01*
X3755644Y3896817D01*
X3735476Y3871315D01*
X3732326Y3866794D01*
X3724097Y3855821D01*
X3722878Y3853129D01*
X3721506Y3852164D01*
X3709314Y3833977D01*
X3707739Y3829862D01*
X3706012Y3829862D01*
X3704742Y3825900D01*
X3698494Y3817061D01*
X3696665Y3813048D01*
X3692245Y3805732D01*
X3689350Y3800297D01*
X3684981Y3792982D01*
X3678478Y3780231D01*
X3676853Y3777538D01*
X3669284Y3762044D01*
X3664661Y3752037D01*
X3661257Y3745382D01*
X3661257Y3742690D01*
X3658666Y3740505D01*
X3657498Y3735324D01*
X3653993Y3728415D01*
X3653993Y3726078D01*
X3650335Y3719271D01*
X3650335Y3716934D01*
X3646678Y3710127D01*
X3646678Y3706368D01*
X3644747Y3704488D01*
X3642258Y3695547D01*
X3639159Y3686454D01*
X3636670Y3680968D01*
X3634994Y3672789D01*
X3632200Y3665474D01*
X3632098Y3661308D01*
X3629456Y3656126D01*
X3628237Y3648201D01*
X3626307Y3644544D01*
X3623970Y3631793D01*
X3619296Y3612692D01*
X3616706Y3595370D01*
X3614877Y3588969D01*
X3613048Y3569868D01*
X3611219Y3563620D01*
X3610101Y3541623D01*
X3607511Y3522014D01*
X3607511Y3452876D01*
X3610101Y3433267D01*
X3611219Y3411270D01*
X3613048Y3405022D01*
X3614877Y3384956D01*
X3617417Y3376777D01*
X3618636Y3364229D01*
X3620922Y3357676D01*
X3622294Y3346754D01*
X3624579Y3342182D01*
X3625951Y3331260D01*
X3628237Y3326688D01*
X3629558Y3317138D01*
X3631082Y3316173D01*
X3633114Y3305759D01*
X3635603Y3299358D01*
X3636721Y3293922D01*
X3639159Y3288436D01*
X3642207Y3279343D01*
X3644696Y3271113D01*
X3647643Y3262934D01*
X3650335Y3258108D01*
X3650335Y3255568D01*
X3653993Y3248456D01*
X3653993Y3246475D01*
X3657498Y3239516D01*
X3658666Y3234385D01*
X3661257Y3232200D01*
X3661257Y3229508D01*
X3674059Y3202838D01*
X3675837Y3200095D01*
X3677665Y3195523D01*
X3679494Y3192830D01*
X3681323Y3188258D01*
X3685743Y3180994D01*
X3687064Y3178251D01*
X3696309Y3162147D01*
X3706114Y3145790D01*
X3721506Y3122726D01*
X3722878Y3121761D01*
X3724097Y3119018D01*
X3732326Y3108096D01*
X3735476Y3103575D01*
X3755999Y3077565D01*
X3759149Y3074365D01*
X3772204Y3058922D01*
X3779824Y3050743D01*
X3798468Y3031591D01*
X3821074Y3010357D01*
X3831691Y3001822D01*
X3835704Y2997911D01*
X3843883Y2991154D01*
X3867556Y2972917D01*
X3870299Y2970580D01*
X3889400Y2957372D01*
X3899052Y2951022D01*
X3899712Y2951022D01*
X3917187Y2939338D01*
X3924909Y2935325D01*
X3932224Y2930956D01*
X3937660Y2928112D01*
X3944975Y2923743D01*
X3949496Y2921863D01*
X3952240Y2920187D01*
X3975912Y2908401D01*
X4002684Y2896362D01*
X4004614Y2896362D01*
X4011422Y2892704D01*
X4014215Y2892704D01*
X4017822Y2890215D01*
X4023563Y2888945D01*
X4030522Y2885440D01*
X4034282Y2885440D01*
X4037939Y2882849D01*
X4045153Y2881579D01*
X4048810Y2879293D01*
X4056989Y2877362D01*
X4071569Y2872486D01*
X4082491Y2870250D01*
X4086250Y2868218D01*
X4096156Y2866999D01*
X4101795Y2864713D01*
X4111650Y2863392D01*
X4117390Y2861005D01*
X4129836Y2859684D01*
X4137151Y2857296D01*
X4150817Y2856179D01*
X4162653Y2853690D01*
X4179011Y2852521D01*
X4199077Y2849524D01*
X4291939Y2849473D01*
X4313834Y2852521D01*
X4330192Y2853740D01*
X4341164Y2856128D01*
X4353915Y2857296D01*
X4362094Y2859786D01*
X4374845Y2861005D01*
X4380382Y2863291D01*
X4391253Y2864662D01*
X4394504Y2866390D01*
X4407611Y2868828D01*
X4422190Y2873705D01*
X4433112Y2876143D01*
X4448606Y2881680D01*
X4456277Y2883662D01*
X4457242Y2885186D01*
X4464761Y2886405D01*
X4468622Y2889046D01*
X4471416Y2889046D01*
X4478223Y2892704D01*
X4480509Y2892704D01*
X4487316Y2896362D01*
X4489500Y2896362D01*
X4524197Y2911957D01*
X4526940Y2913684D01*
X4531512Y2915462D01*
X4534204Y2917240D01*
X4546955Y2923743D01*
X4549698Y2925419D01*
X4554524Y2927756D01*
X4576114Y2940456D01*
X4586630Y2947365D01*
X4587748Y2947365D01*
X4613452Y2964688D01*
X4626203Y2973730D01*
X4659020Y2999486D01*
X4661865Y3002483D01*
X4673447Y3012490D01*
X4689043Y3026968D01*
X4709109Y3047187D01*
X4722774Y3061817D01*
X4738319Y3079902D01*
X4761331Y3109010D01*
X4769205Y3120390D01*
X4788763Y3149498D01*
X4788763Y3150463D01*
X4794758Y3159099D01*
X4797044Y3163671D01*
X4801514Y3170936D01*
X4804410Y3176422D01*
X4808626Y3183686D01*
X4825441Y3217418D01*
X4829149Y3225596D01*
X4832502Y3232200D01*
X4832502Y3234944D01*
X4835093Y3237128D01*
X4836363Y3242919D01*
X4839766Y3249269D01*
X4839766Y3253028D01*
X4841849Y3255060D01*
X4849063Y3274771D01*
X4851552Y3283661D01*
X4853279Y3285693D01*
X4854549Y3293008D01*
X4857038Y3296970D01*
X4858258Y3304844D01*
X4860544Y3309365D01*
X4861864Y3317595D01*
X4864201Y3322167D01*
X4865522Y3331260D01*
X4867808Y3336899D01*
X4869129Y3346704D01*
X4871516Y3352546D01*
X4872736Y3363112D01*
X4875123Y3371545D01*
X4876342Y3384092D01*
X4878882Y3392271D01*
X4880000Y3409594D01*
X4882438Y3421430D01*
X4884877Y3466033D01*
X4884877Y3508857D01*
X4882438Y3553460D01*
X4880000Y3564382D01*
X4878832Y3582619D01*
X4876393Y3590798D01*
X4875174Y3602634D01*
X4872736Y3611778D01*
X4871466Y3622700D01*
X4869180Y3627221D01*
X4867859Y3637838D01*
X4865522Y3643629D01*
X4864201Y3652723D01*
X4861864Y3657295D01*
X4860544Y3665474D01*
X4858258Y3670046D01*
X4857038Y3677361D01*
X4854600Y3682796D01*
X4851501Y3691890D01*
X4849012Y3700119D01*
X4841951Y3719576D01*
X4840020Y3721963D01*
X4838750Y3727450D01*
X4824120Y3760215D01*
X4812284Y3783888D01*
X4810658Y3786632D01*
X4808778Y3791204D01*
X4804410Y3798468D01*
X4801463Y3803954D01*
X4796993Y3811219D01*
X4794758Y3815791D01*
X4789119Y3823970D01*
X4783886Y3833063D01*
X4781499Y3834536D01*
X4781499Y3836720D01*
X4760722Y3866794D01*
X4732782Y3901592D01*
X4720031Y3915816D01*
X4701794Y3935069D01*
X4692700Y3944213D01*
X4673346Y3962400D01*
X4655362Y3977894D01*
X4649876Y3982872D01*
X4648809Y3982872D01*
X4643780Y3987546D01*
X4626508Y4000652D01*
X4607102Y4014266D01*
X4606188Y4015282D01*
X4587595Y4027525D01*
X4586579Y4027525D01*
X4577384Y4033977D01*
X4573371Y4035806D01*
X4546955Y4051198D01*
X4542434Y4053027D01*
X4539691Y4054754D01*
X4521454Y4063796D01*
X4518761Y4064863D01*
X4516018Y4066540D01*
X4489246Y4078528D01*
X4487316Y4078528D01*
X4480509Y4082186D01*
X4478223Y4082186D01*
X4471416Y4085793D01*
X4468622Y4085793D01*
X4465015Y4088333D01*
X4456836Y4090212D01*
X4447692Y4093362D01*
X4444034Y4095242D01*
X4434941Y4097528D01*
X4427677Y4100322D01*
X4423460Y4100372D01*
X4418533Y4102912D01*
X4410354Y4104233D01*
X4405630Y4106672D01*
X4395774Y4107891D01*
X4390136Y4110177D01*
X4380331Y4111498D01*
X4374591Y4113885D01*
X4360265Y4115155D01*
X4353001Y4117543D01*
X4340250Y4118762D01*
X4329328Y4121200D01*
X4312005Y4122369D01*
X4291076Y4124960D01*
G37*
G36*
X3816807Y4030370D02*
G01*
X3746398Y4029811D01*
X3736390Y4025036D01*
X3726586Y4015232D01*
X3720236Y4005732D01*
X3710432Y3989730D01*
X3708552Y3986072D01*
X3704082Y3978808D01*
X3700424Y3971493D01*
X3689553Y3951478D01*
X3682187Y3936441D01*
X3670554Y3911396D01*
X3654907Y3874465D01*
X3654806Y3872229D01*
X3651300Y3864965D01*
X3651250Y3862476D01*
X3648608Y3856736D01*
X3636670Y3820312D01*
X3636670Y3813505D01*
X3639108Y3813505D01*
X3642106Y3820312D01*
X3648456Y3831234D01*
X3653078Y3838549D01*
X3655364Y3843070D01*
X3665829Y3859072D01*
X3665829Y3859784D01*
X3674059Y3872229D01*
X3691788Y3897426D01*
X3713327Y3925062D01*
X3719982Y3933139D01*
X3724554Y3937965D01*
X3733647Y3948734D01*
X3743655Y3959656D01*
X3776472Y3992524D01*
X3801516Y4014774D01*
X3818077Y4028287D01*
G37*
G36*
X4676292Y4030218D02*
G01*
X4673549Y4028389D01*
X4676648Y4026560D01*
X4679035Y4024274D01*
X4693615Y4012488D01*
X4711801Y3996232D01*
X4728210Y3980637D01*
X4738217Y3970578D01*
X4754676Y3953306D01*
X4769256Y3936898D01*
X4784445Y3918712D01*
X4791862Y3908653D01*
X4801971Y3895598D01*
X4807458Y3887876D01*
X4808423Y3886809D01*
X4824323Y3863441D01*
X4824323Y3862730D01*
X4834940Y3846728D01*
X4855159Y3811219D01*
X4871008Y3779367D01*
X4882388Y3753865D01*
X4886401Y3743807D01*
X4888585Y3739286D01*
X5135321Y3738778D01*
X5147005Y3742436D01*
X5149291Y3742436D01*
X5158079Y3749446D01*
X5163515Y3760215D01*
X5163362Y3782974D01*
X5159451Y3794607D01*
X5159502Y3796639D01*
X5151932Y3822141D01*
X5148529Y3831894D01*
X5148478Y3834892D01*
X5144973Y3842207D01*
X5144871Y3845814D01*
X5142077Y3851198D01*
X5140452Y3857650D01*
X5131968Y3879545D01*
X5129377Y3886809D01*
X5122011Y3904132D01*
X5110429Y3929634D01*
X5099354Y3952392D01*
X5088432Y3972407D01*
X5084775Y3979722D01*
X5075174Y3996080D01*
X5063388Y4014317D01*
X5052466Y4025595D01*
X5045151Y4028744D01*
X5037886Y4030014D01*
G37*
G36*
X3635756Y3813962D02*
G01*
X3633978Y3811219D01*
X3633927Y3807104D01*
X3635756Y3807104D01*
G37*
G36*
X4914950Y3665931D02*
G01*
X4912715Y3664508D01*
X4915204Y3655466D01*
X4918964Y3638194D01*
X4920996Y3629964D01*
X4922774Y3619957D01*
X4925415Y3608120D01*
X4927193Y3593846D01*
X4928920Y3587191D01*
X4930902Y3565499D01*
X4932629Y3557930D01*
X4936185Y3487877D01*
X4932578Y3416503D01*
X4930749Y3410508D01*
X4929682Y3390087D01*
X4934051Y3389020D01*
X5128056Y3389680D01*
X5141722Y3393287D01*
X5148986Y3398012D01*
X5155488Y3405022D01*
X5158740Y3410204D01*
X5162296Y3420516D01*
X5168392Y3453282D01*
X5169458Y3456025D01*
X5176926Y3507943D01*
X5178552Y3532530D01*
X5180838Y3550716D01*
X5180888Y3634536D01*
X5176520Y3648049D01*
X5163566Y3661105D01*
X5153558Y3665880D01*
G37*
G36*
X4920234Y3330803D02*
G01*
X4916322Y3326587D01*
X4913630Y3313937D01*
X4904536Y3282543D01*
X4899761Y3267506D01*
X4898186Y3264560D01*
X4896154Y3256584D01*
X4893767Y3251098D01*
X4888941Y3237433D01*
X4886248Y3232607D01*
X4886248Y3230118D01*
X4882591Y3223310D01*
X4882591Y3221431D01*
X4866995Y3187344D01*
X4865420Y3184601D01*
X4851196Y3156813D01*
X4841595Y3140557D01*
X4841595Y3139592D01*
X4824780Y3112973D01*
X4813350Y3095650D01*
X4802733Y3081680D01*
X4800396Y3077311D01*
X4803394Y3075076D01*
X4970475Y3075990D01*
X4975758Y3078530D01*
X4977587Y3078530D01*
X4989626Y3084169D01*
X4998567Y3091332D01*
X5025847Y3125419D01*
X5036464Y3139998D01*
X5039360Y3143605D01*
X5067198Y3185515D01*
X5081930Y3210102D01*
X5084775Y3215589D01*
X5092039Y3228340D01*
X5099456Y3242919D01*
X5101183Y3245612D01*
X5103012Y3250184D01*
X5104841Y3252927D01*
X5106619Y3257448D01*
X5108346Y3260191D01*
X5123027Y3292094D01*
X5123027Y3293719D01*
X5130749Y3311093D01*
X5130749Y3322523D01*
X5125516Y3327958D01*
X5119827Y3330752D01*
G37*
G36*
X4834788Y3007207D02*
G01*
X4739640Y3007004D01*
X4731867Y2998825D01*
X4708956Y2976981D01*
X4684522Y2955950D01*
X4658512Y2935376D01*
X4643983Y2925013D01*
X4624120Y2911398D01*
X4605578Y2899562D01*
X4573371Y2881071D01*
X4535119Y2861868D01*
X4508398Y2849930D01*
X4506417Y2849930D01*
X4499660Y2846273D01*
X4497374Y2846273D01*
X4483201Y2839872D01*
X4476851Y2838754D01*
X4473194Y2836468D01*
X4466844Y2835097D01*
X4461357Y2832760D01*
X4452264Y2829763D01*
X4414012Y2818942D01*
X4400296Y2816301D01*
X4395266Y2814421D01*
X4383176Y2812491D01*
X4381398Y2811373D01*
X4386681Y2808579D01*
X4419447Y2808986D01*
X4462729Y2810611D01*
X4464405Y2811678D01*
X4494428Y2814320D01*
X4502353Y2816199D01*
X4519980Y2818028D01*
X4524451Y2819704D01*
X4537862Y2821025D01*
X4542434Y2822752D01*
X4557014Y2825089D01*
X4569764Y2828086D01*
X4577029Y2830017D01*
X4589373Y2832557D01*
X4592523Y2834182D01*
X4599787Y2835452D01*
X4610709Y2838805D01*
X4624374Y2842666D01*
X4629861Y2844596D01*
X4638954Y2847136D01*
X4642612Y2848813D01*
X4651705Y2851810D01*
X4660493Y2854350D01*
X4662627Y2856077D01*
X4669028Y2857398D01*
X4673549Y2859735D01*
X4698187Y2869234D01*
X4699965Y2870504D01*
X4710938Y2874721D01*
X4726381Y2881934D01*
X4766462Y2901950D01*
X4773777Y2906268D01*
X4777892Y2908147D01*
X4810201Y2927400D01*
X4817872Y2932328D01*
X4825695Y2937764D01*
X4847539Y2955290D01*
X4863287Y2970580D01*
X4871821Y2983128D01*
X4872837Y2992831D01*
X4869891Y2997352D01*
X4863541Y3002178D01*
X4849368Y3005886D01*
G37*
G36*
X4898644Y2766110D02*
G01*
X4893513Y2761234D01*
X4893513Y2552446D01*
X4898644Y2547518D01*
X4903216Y2547518D01*
X4907635Y2553462D01*
X4908550Y2724505D01*
X4910378Y2725064D01*
X4916322Y2712821D01*
X4930851Y2685491D01*
X4932680Y2682798D01*
X4934559Y2678226D01*
X4938979Y2670962D01*
X4941824Y2664561D01*
X4949799Y2649982D01*
X4953508Y2642717D01*
X4956810Y2638856D01*
X4961585Y2637739D01*
X4965903Y2641142D01*
X4971948Y2652725D01*
X4973675Y2655468D01*
X4975606Y2659989D01*
X4980025Y2667304D01*
X4981854Y2671876D01*
X4983632Y2674569D01*
X4990185Y2687320D01*
X5007762Y2720136D01*
X5011420Y2727858D01*
X5012842Y2727858D01*
X5012842Y2553157D01*
X5017566Y2547518D01*
X5021173Y2547518D01*
X5024577Y2549398D01*
X5026507Y2556205D01*
X5026507Y2757474D01*
X5024577Y2764231D01*
X5021478Y2766060D01*
X5017719Y2766110D01*
X5013502Y2761640D01*
X5011115Y2757474D01*
X4975402Y2690063D01*
X4973675Y2687320D01*
X4971745Y2682798D01*
X4967325Y2675483D01*
X4965496Y2670962D01*
X4963617Y2668219D01*
X4960924Y2662377D01*
X4956505Y2666492D01*
X4955235Y2671419D01*
X4953609Y2672435D01*
X4950917Y2678226D01*
X4925314Y2726486D01*
X4923586Y2729230D01*
X4921707Y2733802D01*
X4917287Y2741066D01*
X4915357Y2745638D01*
X4913680Y2748381D01*
X4907686Y2760218D01*
X4902250Y2766110D01*
G37*
G36*
X4759909Y2766110D02*
G01*
X4755083Y2762351D01*
X4755083Y2754579D01*
X4758944Y2751074D01*
X4833874Y2750159D01*
X4833874Y2676398D01*
X4777384Y2675382D01*
X4774895Y2669590D01*
X4776063Y2663799D01*
X4779060Y2660446D01*
X4828641Y2660446D01*
X4834331Y2659329D01*
X4833874Y2563469D01*
X4758791Y2562555D01*
X4754778Y2558592D01*
X4755032Y2551734D01*
X4760112Y2547620D01*
X4840782Y2547518D01*
X4845964Y2550210D01*
X4847082Y2553157D01*
X4847082Y2761894D01*
X4843119Y2766110D01*
G37*
G36*
X4643526Y2766110D02*
G01*
X4634433Y2763215D01*
X4626203Y2759354D01*
X4617110Y2752039D01*
X4612538Y2747467D01*
X4606086Y2739237D01*
X4601362Y2729230D01*
X4598416Y2721965D01*
X4597026Y2712262D01*
X4610150Y2712262D01*
X4612741Y2717393D01*
X4614062Y2724556D01*
X4617567Y2729026D01*
X4617567Y2731211D01*
X4628946Y2742895D01*
X4634433Y2746705D01*
X4647031Y2750616D01*
X4692700Y2750515D01*
X4694986Y2749550D01*
X4694986Y2654960D01*
X4689957Y2653030D01*
X4644440Y2653741D01*
X4632807Y2658211D01*
X4618024Y2672740D01*
X4613910Y2680970D01*
X4610862Y2689148D01*
X4610150Y2712262D01*
X4597026Y2712262D01*
X4595520Y2700985D01*
X4598517Y2680970D01*
X4601159Y2676906D01*
X4601159Y2673908D01*
X4605070Y2667304D01*
X4611370Y2657602D01*
X4620158Y2649067D01*
X4627829Y2644546D01*
X4632147Y2640533D01*
X4630267Y2635402D01*
X4627676Y2629966D01*
X4616856Y2605379D01*
X4612081Y2595016D01*
X4612081Y2592374D01*
X4609490Y2590190D01*
X4608271Y2584399D01*
X4605934Y2581706D01*
X4604664Y2577134D01*
X4598517Y2564231D01*
X4595571Y2555595D01*
X4599025Y2548991D01*
X4604207Y2547264D01*
X4610252Y2553868D01*
X4610252Y2557322D01*
X4612944Y2559558D01*
X4614113Y2565704D01*
X4616602Y2567736D01*
X4617770Y2573883D01*
X4620158Y2575915D01*
X4621428Y2581554D01*
X4624832Y2587142D01*
X4624832Y2590139D01*
X4627422Y2592222D01*
X4628540Y2597150D01*
X4643120Y2629458D01*
X4647184Y2637739D01*
X4694529Y2637231D01*
X4695545Y2552141D01*
X4699863Y2547518D01*
X4703826Y2547518D01*
X4708652Y2551988D01*
X4708652Y2761640D01*
X4703826Y2766110D01*
G37*
G36*
X4461256Y2766110D02*
G01*
X4456379Y2761030D01*
X4456379Y2756509D01*
X4461713Y2750616D01*
X4505401Y2750616D01*
X4516018Y2746654D01*
X4518761Y2744266D01*
X4527550Y2735630D01*
X4530090Y2730144D01*
X4531715Y2727401D01*
X4536033Y2716479D01*
X4536033Y2593441D01*
X4532833Y2588564D01*
X4532833Y2586228D01*
X4526737Y2577134D01*
X4521555Y2572004D01*
X4513630Y2566670D01*
X4511852Y2566670D01*
X4501489Y2563012D01*
X4461002Y2563012D01*
X4456379Y2556916D01*
X4456379Y2553462D01*
X4461916Y2547518D01*
X4505706Y2547518D01*
X4518761Y2551430D01*
X4521606Y2553919D01*
X4523638Y2553919D01*
X4526788Y2557119D01*
X4532934Y2561996D01*
X4539843Y2570734D01*
X4544466Y2579878D01*
X4547412Y2586228D01*
X4550257Y2606294D01*
X4549597Y2716479D01*
X4547362Y2727401D01*
X4544923Y2731058D01*
X4543653Y2736951D01*
X4541926Y2738018D01*
X4539437Y2743962D01*
X4526026Y2757678D01*
X4513783Y2763367D01*
X4511192Y2763367D01*
X4505096Y2766060D01*
G37*
G36*
X4303217Y2766110D02*
G01*
X4299915Y2764332D01*
X4297883Y2758541D01*
X4297883Y2606294D01*
X4299661Y2591003D01*
X4302201Y2587142D01*
X4303471Y2581351D01*
X4306062Y2579166D01*
X4306062Y2577287D01*
X4313682Y2567127D01*
X4323334Y2557932D01*
X4335526Y2551125D01*
X4340250Y2550109D01*
X4347108Y2547518D01*
X4361688Y2547518D01*
X4367733Y2550058D01*
X4375200Y2551328D01*
X4377334Y2553919D01*
X4379671Y2553919D01*
X4389424Y2561386D01*
X4397806Y2570378D01*
X4404918Y2582418D01*
X4410252Y2598064D01*
X4410913Y2760726D01*
X4405477Y2766110D01*
X4403039Y2766110D01*
X4397146Y2760776D01*
X4397146Y2602788D01*
X4393336Y2590800D01*
X4391710Y2588056D01*
X4389221Y2582621D01*
X4386224Y2580081D01*
X4386224Y2578506D01*
X4379417Y2571953D01*
X4372457Y2567482D01*
X4359351Y2563012D01*
X4349445Y2563012D01*
X4337507Y2567025D01*
X4329785Y2572207D01*
X4322927Y2579370D01*
X4319066Y2584399D01*
X4314291Y2594610D01*
X4314291Y2597404D01*
X4311548Y2603957D01*
X4311548Y2761488D01*
X4306570Y2766110D01*
G37*
G36*
X4247642Y2766110D02*
G01*
X4186326Y2766009D01*
X4174490Y2761996D01*
X4166362Y2757678D01*
X4152595Y2743708D01*
X4150410Y2740761D01*
X4143095Y2726842D01*
X4141978Y2720136D01*
X4139285Y2712770D01*
X4139595Y2702458D01*
X4153458Y2702458D01*
X4154932Y2718104D01*
X4157472Y2722880D01*
X4161282Y2731058D01*
X4170679Y2741676D01*
X4178096Y2746502D01*
X4186326Y2750058D01*
X4236415Y2750769D01*
X4237786Y2749397D01*
X4237786Y2655214D01*
X4235094Y2652979D01*
X4186326Y2653741D01*
X4179062Y2657754D01*
X4177741Y2657754D01*
X4169765Y2663139D01*
X4162653Y2671267D01*
X4158538Y2676702D01*
X4158538Y2679141D01*
X4154982Y2684983D01*
X4153458Y2702458D01*
X4139595Y2702458D01*
X4139946Y2689148D01*
X4143349Y2676398D01*
X4145787Y2673553D01*
X4145787Y2670708D01*
X4149039Y2666390D01*
X4151731Y2660954D01*
X4165346Y2647086D01*
X4174490Y2642616D01*
X4175048Y2637536D01*
X4172356Y2634538D01*
X4171035Y2629052D01*
X4168749Y2626309D01*
X4167479Y2621788D01*
X4158183Y2601264D01*
X4152341Y2587599D01*
X4145787Y2573172D01*
X4145787Y2570530D01*
X4143044Y2568244D01*
X4143044Y2566162D01*
X4139387Y2558999D01*
X4139387Y2552242D01*
X4145076Y2547467D01*
X4148988Y2548686D01*
X4150817Y2550109D01*
X4153814Y2556205D01*
X4187698Y2632710D01*
X4190034Y2637231D01*
X4237329Y2637231D01*
X4237786Y2553766D01*
X4242562Y2547518D01*
X4247235Y2547518D01*
X4252366Y2552446D01*
X4252366Y2760522D01*
G37*
G36*
X4086148Y2766110D02*
G01*
X4080205Y2762504D01*
X4080205Y2551734D01*
X4084167Y2547518D01*
X4088129Y2547518D01*
X4092956Y2551988D01*
X4092956Y2761386D01*
X4087368Y2766110D01*
G37*
G36*
X3925824Y2766110D02*
G01*
X3920388Y2761589D01*
X3920388Y2598064D01*
X3924604Y2586228D01*
X3928465Y2578049D01*
X3932224Y2572562D01*
X3933139Y2571648D01*
X3938219Y2564841D01*
X3950411Y2555087D01*
X3960774Y2550261D01*
X3963415Y2550261D01*
X3969969Y2547518D01*
X3984142Y2547620D01*
X3991406Y2550261D01*
X3993794Y2550261D01*
X4005986Y2556052D01*
X4022394Y2572562D01*
X4030116Y2588056D01*
X4031792Y2597150D01*
X4033774Y2602280D01*
X4033774Y2761030D01*
X4028846Y2766110D01*
X4025595Y2766110D01*
X4019651Y2760827D01*
X4018737Y2596286D01*
X4014622Y2589022D01*
X4014622Y2587091D01*
X4004818Y2574239D01*
X3994150Y2567127D01*
X3982313Y2563012D01*
X3972153Y2563012D01*
X3958996Y2567482D01*
X3951325Y2573426D01*
X3943604Y2581706D01*
X3942587Y2584856D01*
X3941013Y2584856D01*
X3938778Y2591714D01*
X3936390Y2595372D01*
X3934510Y2610764D01*
X3934510Y2759456D01*
X3930345Y2765653D01*
G37*
G36*
X3817772Y2766110D02*
G01*
X3806545Y2763469D01*
X3795623Y2761742D01*
X3786479Y2758592D01*
X3779062Y2755188D01*
X3777132Y2755188D01*
X3771442Y2748737D01*
X3771442Y2745790D01*
X3776268Y2739491D01*
X3785362Y2740558D01*
X3788308Y2743149D01*
X3794709Y2744419D01*
X3798315Y2746705D01*
X3807460Y2748026D01*
X3816400Y2750616D01*
X3832961Y2750566D01*
X3840226Y2747060D01*
X3842816Y2747010D01*
X3846372Y2743809D01*
X3855262Y2734767D01*
X3855262Y2733040D01*
X3857802Y2730144D01*
X3861765Y2713482D01*
X3859936Y2704642D01*
X3857802Y2695803D01*
X3853891Y2690063D01*
X3849370Y2684068D01*
X3837482Y2676448D01*
X3832961Y2674112D01*
X3825646Y2669641D01*
X3822903Y2668371D01*
X3781044Y2644597D01*
X3771900Y2635402D01*
X3766921Y2628036D01*
X3766921Y2625801D01*
X3764279Y2621788D01*
X3762146Y2609900D01*
X3761232Y2597658D01*
X3764381Y2581706D01*
X3766870Y2577134D01*
X3768750Y2572562D01*
X3775557Y2562606D01*
X3782822Y2555595D01*
X3790137Y2551684D01*
X3801973Y2547620D01*
X3818585Y2547518D01*
X3825646Y2550007D01*
X3834688Y2551328D01*
X3838346Y2553919D01*
X3840937Y2553919D01*
X3851148Y2558542D01*
X3858463Y2562402D01*
X3861155Y2564485D01*
X3865727Y2566466D01*
X3874363Y2574086D01*
X3874363Y2582011D01*
X3871518Y2584856D01*
X3864813Y2584856D01*
X3854399Y2577642D01*
X3849878Y2576525D01*
X3847846Y2574086D01*
X3842613Y2572918D01*
X3840479Y2570327D01*
X3836568Y2570327D01*
X3830218Y2566924D01*
X3821988Y2565603D01*
X3814216Y2563012D01*
X3802583Y2563012D01*
X3791051Y2568244D01*
X3783279Y2575509D01*
X3783279Y2576982D01*
X3780790Y2579878D01*
X3776014Y2591866D01*
X3776014Y2612085D01*
X3777691Y2613152D01*
X3779926Y2619908D01*
X3785717Y2628138D01*
X3799382Y2637231D01*
X3824732Y2652166D01*
X3854602Y2669133D01*
X3867099Y2682646D01*
X3867099Y2684830D01*
X3869690Y2687015D01*
X3870960Y2692755D01*
X3873906Y2697276D01*
X3873855Y2728315D01*
X3869334Y2738323D01*
X3862324Y2748838D01*
X3854551Y2756814D01*
X3846779Y2761742D01*
X3834739Y2765856D01*
G37*
G36*
X4509109Y2494737D02*
G01*
X4503724Y2491943D01*
X4503724Y2490266D01*
X4509008Y2486507D01*
X4534560Y2486507D01*
X4539234Y2484729D01*
X4539234Y2390902D01*
X4548327Y2390902D01*
X4548327Y2483561D01*
X4551324Y2486050D01*
X4580178Y2486964D01*
X4584293Y2491181D01*
X4580026Y2494737D01*
G37*
G36*
X4411218Y2494737D02*
G01*
X4407154Y2491892D01*
X4407154Y2490165D01*
X4410811Y2486507D01*
X4458055Y2486507D01*
X4462780Y2484729D01*
X4462272Y2453284D01*
X4425442Y2452370D01*
X4420412Y2447340D01*
X4423613Y2444140D01*
X4461306Y2443581D01*
X4462729Y2441448D01*
X4462729Y2399334D01*
X4455922Y2398166D01*
X4408932Y2398166D01*
X4408220Y2395880D01*
X4407154Y2390902D01*
X4471822Y2390902D01*
X4471822Y2492806D01*
X4468672Y2494635D01*
G37*
G36*
X4203090Y2494737D02*
G01*
X4197705Y2491943D01*
X4197705Y2394966D01*
X4198823Y2390902D01*
X4207510Y2390902D01*
X4208627Y2394966D01*
X4208627Y2439619D01*
X4209745Y2443683D01*
X4265828Y2443683D01*
X4266895Y2440838D01*
X4266946Y2397709D01*
X4268063Y2390902D01*
X4277868Y2390902D01*
X4277868Y2491638D01*
X4275683Y2493822D01*
X4270248Y2493822D01*
X4266895Y2490774D01*
X4266895Y2454097D01*
X4264710Y2451912D01*
X4210812Y2451912D01*
X4208627Y2454097D01*
X4208627Y2491943D01*
X4203598Y2494635D01*
G37*
G36*
X4314748Y2494686D02*
G01*
X4310329Y2492451D01*
X4309618Y2490266D01*
X4313123Y2486761D01*
X4347514Y2485644D01*
X4352848Y2484424D01*
X4364075Y2473198D01*
X4365294Y2461666D01*
X4365294Y2422093D01*
X4364126Y2410968D01*
X4355998Y2402738D01*
X4353864Y2402738D01*
X4346651Y2398877D01*
X4311396Y2397912D01*
X4309719Y2393492D01*
X4309719Y2390902D01*
X4354169Y2390902D01*
X4355134Y2393391D01*
X4360164Y2394661D01*
X4367022Y2400096D01*
X4372660Y2407158D01*
X4375708Y2417775D01*
X4375759Y2467864D01*
X4372406Y2478379D01*
X4362907Y2488133D01*
X4353356Y2492959D01*
X4342942Y2494483D01*
G37*
D10*
X3378200Y3849949D02*
G01*
X3378200Y3655987D01*
X3378200Y3849949D02*
G01*
X3295073Y3849949D01*
X3267364Y3840713D01*
X3258126Y3831478D01*
X3248891Y3813004D01*
X3248891Y3794531D01*
X3258126Y3776060D01*
X3267364Y3766822D01*
X3295073Y3757587D01*
X3378200Y3757587D01*
X3313544Y3757587D02*
G01*
X3248891Y3655987D01*
X3077095Y3785295D02*
G01*
X3077095Y3655987D01*
X3077095Y3757587D02*
G01*
X3095566Y3776060D01*
X3114040Y3785295D01*
X3141748Y3785295D01*
X3160222Y3776060D01*
X3178695Y3757587D01*
X3187931Y3729878D01*
X3187931Y3711404D01*
X3178695Y3683695D01*
X3160222Y3665222D01*
X3141748Y3655987D01*
X3114040Y3655987D01*
X3095566Y3665222D01*
X3077095Y3683695D01*
X2988424Y3849949D02*
G01*
X2988424Y3692931D01*
X2979188Y3665222D01*
X2960715Y3655987D01*
X2942244Y3655987D01*
X3016135Y3785295D02*
G01*
X2951479Y3785295D01*
X2881284Y3849949D02*
G01*
X2881284Y3655987D01*
X2881284Y3849949D02*
G01*
X2798155Y3849949D01*
X2770446Y3840713D01*
X2761211Y3831478D01*
X2751975Y3813004D01*
X2751975Y3794531D01*
X2761211Y3776060D01*
X2770446Y3766822D01*
X2798155Y3757587D01*
X2881284Y3757587D02*
G01*
X2798155Y3757587D01*
X2770446Y3748349D01*
X2761211Y3739113D01*
X2751975Y3720640D01*
X2751975Y3692931D01*
X2761211Y3674460D01*
X2770446Y3665222D01*
X2798155Y3655987D01*
X2881284Y3655987D01*
X2691015Y3849949D02*
G01*
X2681777Y3840713D01*
X2672542Y3849949D01*
X2681777Y3859187D01*
X2691015Y3849949D01*
X2681777Y3785295D02*
G01*
X2681777Y3655987D01*
X2611582Y3785295D02*
G01*
X2611582Y3655987D01*
X2611582Y3729878D02*
G01*
X2602344Y3757587D01*
X2583873Y3776060D01*
X2565400Y3785295D01*
X2537691Y3785295D01*
X2365895Y3849949D02*
G01*
X2365895Y3655987D01*
X2365895Y3757587D02*
G01*
X2384366Y3776060D01*
X2402840Y3785295D01*
X2430548Y3785295D01*
X2449022Y3776060D01*
X2467495Y3757587D01*
X2476731Y3729878D01*
X2476731Y3711404D01*
X2467495Y3683695D01*
X2449022Y3665222D01*
X2430548Y3655987D01*
X2402840Y3655987D01*
X2384366Y3665222D01*
X2365895Y3683695D01*
X2162695Y3849949D02*
G01*
X2088804Y3655987D01*
X2014913Y3849949D02*
G01*
X2088804Y3655987D01*
X1935479Y3849949D02*
G01*
X1833879Y3849949D01*
X1889297Y3776060D01*
X1861588Y3776060D01*
X1843115Y3766822D01*
X1833879Y3757587D01*
X1824644Y3729878D01*
X1824644Y3711404D01*
X1833879Y3683695D01*
X1852353Y3665222D01*
X1880062Y3655987D01*
X1907771Y3655987D01*
X1935479Y3665222D01*
X1944715Y3674460D01*
X1953953Y3692931D01*
X3304308Y3545149D02*
G01*
X3378200Y3351187D01*
X3304308Y3545149D02*
G01*
X3230417Y3351187D01*
X3350491Y3415840D02*
G01*
X3258126Y3415840D01*
X3058622Y3452787D02*
G01*
X3077095Y3471260D01*
X3095566Y3480495D01*
X3123275Y3480495D01*
X3141748Y3471260D01*
X3160222Y3452787D01*
X3169457Y3425078D01*
X3169457Y3406604D01*
X3160222Y3378895D01*
X3141748Y3360422D01*
X3123275Y3351187D01*
X3095566Y3351187D01*
X3077095Y3360422D01*
X3058622Y3378895D01*
X2969953Y3545149D02*
G01*
X2969953Y3388131D01*
X2960715Y3360422D01*
X2942244Y3351187D01*
X2923771Y3351187D01*
X2997662Y3480495D02*
G01*
X2933006Y3480495D01*
X2862811Y3480495D02*
G01*
X2862811Y3388131D01*
X2853575Y3360422D01*
X2835102Y3351187D01*
X2807393Y3351187D01*
X2788920Y3360422D01*
X2761211Y3388131D01*
X2761211Y3480495D02*
G01*
X2761211Y3351187D01*
X2589415Y3480495D02*
G01*
X2589415Y3351187D01*
X2589415Y3452787D02*
G01*
X2607886Y3471260D01*
X2626359Y3480495D01*
X2654068Y3480495D01*
X2672542Y3471260D01*
X2691015Y3452787D01*
X2700251Y3425078D01*
X2700251Y3406604D01*
X2691015Y3378895D01*
X2672542Y3360422D01*
X2654068Y3351187D01*
X2626359Y3351187D01*
X2607886Y3360422D01*
X2589415Y3378895D01*
X2500744Y3545149D02*
G01*
X2500744Y3388131D01*
X2491508Y3360422D01*
X2473035Y3351187D01*
X2454564Y3351187D01*
X2528455Y3480495D02*
G01*
X2463800Y3480495D01*
X2393604Y3545149D02*
G01*
X2384366Y3535913D01*
X2375131Y3545149D01*
X2384366Y3554387D01*
X2393604Y3545149D01*
X2384366Y3480495D02*
G01*
X2384366Y3351187D01*
X2267988Y3480495D02*
G01*
X2286462Y3471260D01*
X2304935Y3452787D01*
X2314171Y3425078D01*
X2314171Y3406604D01*
X2304935Y3378895D01*
X2286462Y3360422D01*
X2267988Y3351187D01*
X2240279Y3351187D01*
X2221806Y3360422D01*
X2203335Y3378895D01*
X2194097Y3406604D01*
X2194097Y3425078D01*
X2203335Y3452787D01*
X2221806Y3471260D01*
X2240279Y3480495D01*
X2267988Y3480495D01*
X2133137Y3480495D02*
G01*
X2133137Y3351187D01*
X2133137Y3443549D02*
G01*
X2105428Y3471260D01*
X2086955Y3480495D01*
X2059246Y3480495D01*
X2040775Y3471260D01*
X2031537Y3443549D01*
X2031537Y3351187D01*
X1828337Y3545149D02*
G01*
X1828337Y3351187D01*
X1828337Y3545149D02*
G01*
X1754446Y3351187D01*
X1680555Y3545149D02*
G01*
X1754446Y3351187D01*
X1680555Y3545149D02*
G01*
X1680555Y3351187D01*
X1573415Y3480495D02*
G01*
X1591886Y3471260D01*
X1610360Y3452787D01*
X1619595Y3425078D01*
X1619595Y3406604D01*
X1610360Y3378895D01*
X1591886Y3360422D01*
X1573415Y3351187D01*
X1545704Y3351187D01*
X1527233Y3360422D01*
X1508760Y3378895D01*
X1499524Y3406604D01*
X1499524Y3425078D01*
X1508760Y3452787D01*
X1527233Y3471260D01*
X1545704Y3480495D01*
X1573415Y3480495D01*
X1327726Y3545149D02*
G01*
X1327726Y3351187D01*
X1327726Y3452787D02*
G01*
X1346200Y3471260D01*
X1364673Y3480495D01*
X1392382Y3480495D01*
X1410855Y3471260D01*
X1429326Y3452787D01*
X1438564Y3425078D01*
X1438564Y3406604D01*
X1429326Y3378895D01*
X1410855Y3360422D01*
X1392382Y3351187D01*
X1364673Y3351187D01*
X1346200Y3360422D01*
X1327726Y3378895D01*
X1266766Y3480495D02*
G01*
X1266766Y3388131D01*
X1257531Y3360422D01*
X1239057Y3351187D01*
X1211348Y3351187D01*
X1192875Y3360422D01*
X1165166Y3388131D01*
X1165166Y3480495D02*
G01*
X1165166Y3351187D01*
X1104206Y3545149D02*
G01*
X1104206Y3351187D01*
X1043246Y3425078D02*
G01*
X932411Y3425078D01*
X932411Y3443549D01*
X941646Y3462022D01*
X950884Y3471260D01*
X969355Y3480495D01*
X997064Y3480495D01*
X1015537Y3471260D01*
X1034011Y3452787D01*
X1043246Y3425078D01*
X1043246Y3406604D01*
X1034011Y3378895D01*
X1015537Y3360422D01*
X997064Y3351187D01*
X969355Y3351187D01*
X950884Y3360422D01*
X932411Y3378895D01*
X3378200Y3175695D02*
G01*
X3322782Y3046387D01*
X3267364Y3175695D02*
G01*
X3322782Y3046387D01*
X3206404Y3203404D02*
G01*
X3187931Y3212640D01*
X3160222Y3240349D01*
X3160222Y3046387D01*
X3090024Y3092569D02*
G01*
X3099262Y3083331D01*
X3090024Y3074095D01*
X3080788Y3083331D01*
X3090024Y3092569D01*
X2964411Y3240349D02*
G01*
X2992120Y3231113D01*
X3010593Y3203404D01*
X3019828Y3157222D01*
X3019828Y3129513D01*
X3010593Y3083331D01*
X2992120Y3055622D01*
X2964411Y3046387D01*
X2945937Y3046387D01*
X2918228Y3055622D01*
X2899755Y3083331D01*
X2890520Y3129513D01*
X2890520Y3157222D01*
X2899755Y3203404D01*
X2918228Y3231113D01*
X2945937Y3240349D01*
X2964411Y3240349D01*
M02*
