G04 Layer: TopLayer*
G04 EasyEDA v6.5.54, 2026-03-05 20:34:58*
G04 aaf6dcb2cd2149daa33e195ad962b8fe,f330d47962804ca0b679ce51ac6e9e7f,10*
G04 Gerber Generator version 0.2*
G04 Scale: 100 percent, Rotated: No, Reflected: No *
G04 Dimensions in millimeters *
G04 leading zeros omitted , absolute positions ,4 integer and 5 decimal *
%FSLAX45Y45*%
%MOMM*%

%ADD10C,0.2540*%
%ADD11O,1.799996X2.799994*%
%ADD12R,1.5240X1.5240*%
%ADD13C,1.5240*%
%ADD14C,1.4999*%
%ADD15C,0.0124*%
%ADD16O,2.499995X1.499997*%
%ADD17R,3.5000X3.5000*%
%ADD18C,0.6100*%

%LPD*%
D10*
X7658102Y3352800D02*
G01*
X7606134Y3300831D01*
X7018124Y3300831D01*
X5542892Y1221231D02*
G01*
X7617970Y1221231D01*
X7620002Y1219200D01*
X8420102Y3860800D02*
G01*
X8311161Y3860800D01*
X7658102Y3606800D02*
G01*
X8057161Y3606800D01*
X8311161Y3860800D01*
X7670802Y4699000D02*
G01*
X7779743Y4699000D01*
X7779743Y4699000D02*
G01*
X7894043Y4584700D01*
X8432802Y4584700D01*
X2103909Y1225524D02*
G01*
X2626438Y702995D01*
X5352493Y702995D01*
X8686802Y4584700D02*
G01*
X8547102Y4445000D01*
X7670802Y4445000D01*
X6515102Y5321300D02*
G01*
X7033414Y4802987D01*
X7152490Y4802987D01*
X9144002Y965200D02*
G01*
X8932496Y753694D01*
X7398793Y753694D01*
X7275680Y876807D01*
X6556809Y876807D01*
X6364505Y684504D01*
X5772254Y684504D01*
X5566895Y889863D01*
X3341550Y889863D01*
X3105889Y1125524D01*
X3359889Y1125524D02*
G01*
X3523033Y962380D01*
X5079596Y962380D01*
X5209440Y1092225D01*
X7814896Y1092225D01*
X7956806Y1234135D01*
X9129067Y1234135D01*
X9144002Y1219200D01*
X9144002Y1473200D02*
G01*
X9012811Y1604390D01*
X9012811Y1746554D01*
X8786294Y1973071D01*
X7894830Y1973071D01*
X7786804Y1865045D01*
X4693897Y1865045D01*
X3994889Y1166037D01*
X3994889Y1082167D01*
X3920670Y1007948D01*
X3731465Y1007948D01*
X3613889Y1125524D01*
X3867889Y1125524D02*
G01*
X4844036Y2101672D01*
X8769530Y2101672D01*
X9144002Y1727200D01*
X8255002Y1377213D02*
G01*
X8228027Y1350238D01*
X4917721Y1350238D01*
X4581933Y1014450D01*
X4232963Y1014450D01*
X4121889Y1125524D01*
X7620002Y1727200D02*
G01*
X4977564Y1727200D01*
X4375889Y1125524D01*
X5448302Y5334000D02*
G01*
X5448302Y5225059D01*
X5448302Y5225059D02*
G01*
X4240456Y5225059D01*
X1110896Y2095500D01*
D11*
G01*
X5352491Y4802987D03*
G01*
X7152487Y702995D03*
G01*
X5352491Y702995D03*
G01*
X7152487Y4802987D03*
D12*
G01*
X8420100Y3860800D03*
D13*
G01*
X8674100Y3860800D03*
G01*
X8928100Y3860800D03*
G01*
X9182100Y3860800D03*
D12*
G01*
X8420100Y3136900D03*
D13*
G01*
X8674100Y3136900D03*
G01*
X8928100Y3136900D03*
G01*
X9182100Y3136900D03*
D12*
G01*
X7658100Y3606800D03*
D13*
G01*
X7658100Y3352800D03*
G01*
X7658100Y3098800D03*
D12*
G01*
X7670800Y4699000D03*
D13*
G01*
X7670800Y4445000D03*
G01*
X7670800Y4191000D03*
D12*
G01*
X6261100Y5321300D03*
D13*
G01*
X6515100Y5321300D03*
G01*
X4660900Y2095500D03*
G01*
X4660900Y2603500D03*
G01*
X1110894Y2603500D03*
G01*
X1110894Y2095500D03*
G01*
X4375886Y1125524D03*
G01*
X4121886Y1125524D03*
G01*
X3867886Y1125524D03*
G01*
X3613886Y1125524D03*
G01*
X3359886Y1125524D03*
G01*
X3105886Y1125524D03*
G01*
X1595907Y1225524D03*
G01*
X2611907Y1225524D03*
G01*
X2103907Y1225524D03*
D12*
G01*
X8432800Y4584700D03*
D13*
G01*
X8686800Y4584700D03*
G01*
X8940800Y4584700D03*
G01*
X9194800Y4584700D03*
D12*
G01*
X5448300Y5334000D03*
D13*
G01*
X5702300Y5334000D03*
D12*
G01*
X7073900Y5308600D03*
D13*
G01*
X7327900Y5308600D03*
D14*
G01*
X9144000Y965200D03*
G01*
X7620000Y2235200D03*
G01*
X7620000Y1981200D03*
G01*
X7620000Y1727200D03*
G01*
X7620000Y1473200D03*
G01*
X7620000Y1219200D03*
G01*
X7620000Y965200D03*
G01*
X7620000Y2489200D03*
G01*
X9144000Y1219200D03*
G01*
X9144000Y1473200D03*
G01*
X9144000Y1727200D03*
G01*
X9144000Y1981200D03*
G01*
X9144000Y2235200D03*
G01*
X9144000Y2489200D03*
D16*
G01*
X8844000Y1500200D03*
G01*
X8844000Y1700199D03*
D17*
G01*
X8119999Y1765198D03*
D13*
G01*
X8255000Y869213D03*
G01*
X8255000Y1123213D03*
G01*
X8255000Y1377213D03*
G01*
X8509000Y869213D03*
G01*
X8509000Y1123213D03*
G01*
X8509000Y1377213D03*
D18*
G01*
X7018121Y3300831D03*
G01*
X5542889Y1221231D03*
M02*
