G04 Layer: TopSilkscreenLayer*
G04 EasyEDA v6.5.54, 2026-03-05 20:34:58*
G04 aaf6dcb2cd2149daa33e195ad962b8fe,f330d47962804ca0b679ce51ac6e9e7f,10*
G04 Gerber Generator version 0.2*
G04 Scale: 100 percent, Rotated: No, Reflected: No *
G04 Dimensions in millimeters *
G04 leading zeros omitted , absolute positions ,4 integer and 5 decimal *
%FSLAX45Y45*%
%MOMM*%

%ADD10C,0.1524*%
%ADD11C,0.2500*%
%ADD12C,0.2540*%
%ADD13C,0.0152*%

%LPD*%
D10*
X5979922Y2592070D02*
G01*
X5990336Y2597150D01*
X5995415Y2612644D01*
X5995415Y2623057D01*
X5990336Y2638805D01*
X5974588Y2649220D01*
X5948679Y2654300D01*
X5922772Y2654300D01*
X5901943Y2649220D01*
X5891529Y2638805D01*
X5886450Y2623057D01*
X5886450Y2617978D01*
X5891529Y2602229D01*
X5901943Y2592070D01*
X5917438Y2586736D01*
X5922772Y2586736D01*
X5938265Y2592070D01*
X5948679Y2602229D01*
X5953759Y2617978D01*
X5953759Y2623057D01*
X5948679Y2638805D01*
X5938265Y2649220D01*
X5922772Y2654300D01*
X5995415Y2552445D02*
G01*
X5886450Y2510789D01*
X5995415Y2469387D02*
G01*
X5886450Y2510789D01*
X5849874Y2435097D02*
G01*
X5849874Y2341626D01*
X5995415Y2307336D02*
G01*
X5886450Y2307336D01*
X5995415Y2307336D02*
G01*
X5995415Y2260600D01*
X5990336Y2244852D01*
X5985002Y2239771D01*
X5974588Y2234437D01*
X5964174Y2234437D01*
X5953759Y2239771D01*
X5948679Y2244852D01*
X5943600Y2260600D01*
X5943600Y2307336D02*
G01*
X5943600Y2260600D01*
X5938265Y2244852D01*
X5933186Y2239771D01*
X5922772Y2234437D01*
X5907024Y2234437D01*
X5896609Y2239771D01*
X5891529Y2244852D01*
X5886450Y2260600D01*
X5886450Y2307336D01*
X5995415Y2200147D02*
G01*
X5917438Y2200147D01*
X5901943Y2195068D01*
X5891529Y2184654D01*
X5886450Y2169160D01*
X5886450Y2158745D01*
X5891529Y2142997D01*
X5901943Y2132584D01*
X5917438Y2127504D01*
X5995415Y2127504D01*
X5969508Y2015236D02*
G01*
X5979922Y2020570D01*
X5990336Y2030729D01*
X5995415Y2041144D01*
X5995415Y2061971D01*
X5990336Y2072386D01*
X5979922Y2082800D01*
X5969508Y2087879D01*
X5953759Y2093213D01*
X5927852Y2093213D01*
X5912358Y2087879D01*
X5901943Y2082800D01*
X5891529Y2072386D01*
X5886450Y2061971D01*
X5886450Y2041144D01*
X5891529Y2030729D01*
X5901943Y2020570D01*
X5912358Y2015236D01*
X5995415Y1980945D02*
G01*
X5886450Y1980945D01*
X5995415Y1908302D02*
G01*
X5922772Y1980945D01*
X5948679Y1955037D02*
G01*
X5886450Y1908302D01*
D11*
X7003884Y4903000D02*
G01*
X6860628Y4903000D01*
X7003884Y4858042D02*
G01*
X6860628Y4858042D01*
X7003884Y4858042D02*
G01*
X6860628Y4762538D01*
X7003884Y4762538D02*
G01*
X6860628Y4762538D01*
X6983310Y4656112D02*
G01*
X6860628Y4656112D01*
X6922096Y4717580D02*
G01*
X6922096Y4594898D01*
X5653887Y4903000D02*
G01*
X5510631Y4903000D01*
X5653887Y4858042D02*
G01*
X5510631Y4858042D01*
X5653887Y4858042D02*
G01*
X5510631Y4762538D01*
X5653887Y4762538D02*
G01*
X5510631Y4762538D01*
X5572099Y4717580D02*
G01*
X5572099Y4594898D01*
X7003884Y1112113D02*
G01*
X6997026Y1125829D01*
X6983310Y1139291D01*
X6969848Y1146149D01*
X6949274Y1153007D01*
X6915238Y1153007D01*
X6894664Y1146149D01*
X6881202Y1139291D01*
X6867486Y1125829D01*
X6860628Y1112113D01*
X6860628Y1084935D01*
X6867486Y1071219D01*
X6881202Y1057503D01*
X6894664Y1050645D01*
X6915238Y1044041D01*
X6949274Y1044041D01*
X6969848Y1050645D01*
X6983310Y1057503D01*
X6997026Y1071219D01*
X7003884Y1084935D01*
X7003884Y1112113D01*
X7003884Y998829D02*
G01*
X6901522Y998829D01*
X6881202Y992225D01*
X6867486Y978509D01*
X6860628Y957935D01*
X6860628Y944473D01*
X6867486Y923899D01*
X6881202Y910183D01*
X6901522Y903579D01*
X7003884Y903579D01*
X7003884Y810615D02*
G01*
X6860628Y810615D01*
X7003884Y858367D02*
G01*
X7003884Y763117D01*
X6983310Y656691D02*
G01*
X6860628Y656691D01*
X6922096Y717905D02*
G01*
X6922096Y595223D01*
X5653887Y1112113D02*
G01*
X5647029Y1125829D01*
X5633313Y1139291D01*
X5619851Y1146149D01*
X5599277Y1153007D01*
X5565241Y1153007D01*
X5544667Y1146149D01*
X5531205Y1139291D01*
X5517489Y1125829D01*
X5510631Y1112113D01*
X5510631Y1084935D01*
X5517489Y1071219D01*
X5531205Y1057503D01*
X5544667Y1050645D01*
X5565241Y1044041D01*
X5599277Y1044041D01*
X5619851Y1050645D01*
X5633313Y1057503D01*
X5647029Y1071219D01*
X5653887Y1084935D01*
X5653887Y1112113D01*
X5653887Y998829D02*
G01*
X5551525Y998829D01*
X5531205Y992225D01*
X5517489Y978509D01*
X5510631Y957935D01*
X5510631Y944473D01*
X5517489Y923899D01*
X5531205Y910183D01*
X5551525Y903579D01*
X5653887Y903579D01*
X5653887Y810615D02*
G01*
X5510631Y810615D01*
X5653887Y858367D02*
G01*
X5653887Y763117D01*
X5572099Y717905D02*
G01*
X5572099Y595223D01*
X6094984Y3860800D02*
G01*
X5951727Y3860800D01*
X5951727Y3860800D02*
G01*
X5951727Y3779012D01*
X6094984Y3734054D02*
G01*
X5951727Y3734054D01*
X6094984Y3734054D02*
G01*
X5951727Y3679444D01*
X6094984Y3624834D02*
G01*
X5951727Y3679444D01*
X6094984Y3624834D02*
G01*
X5951727Y3624834D01*
X6060947Y3573018D02*
G01*
X6067806Y3573018D01*
X6081268Y3566160D01*
X6088125Y3559555D01*
X6094984Y3545839D01*
X6094984Y3518407D01*
X6088125Y3504945D01*
X6081268Y3498087D01*
X6067806Y3491229D01*
X6054090Y3491229D01*
X6040374Y3498087D01*
X6020054Y3511804D01*
X5951727Y3579876D01*
X5951727Y3484371D01*
X6094984Y3357626D02*
G01*
X6094984Y3425697D01*
X6033515Y3432555D01*
X6040374Y3425697D01*
X6047231Y3405378D01*
X6047231Y3384804D01*
X6040374Y3364484D01*
X6026658Y3350768D01*
X6006338Y3343910D01*
X5992622Y3343910D01*
X5972302Y3350768D01*
X5958586Y3364484D01*
X5951727Y3384804D01*
X5951727Y3405378D01*
X5958586Y3425697D01*
X5965443Y3432555D01*
X5979159Y3439413D01*
X6047231Y3210305D02*
G01*
X6026658Y3217163D01*
X6013195Y3230879D01*
X6006338Y3251200D01*
X6006338Y3258057D01*
X6013195Y3278631D01*
X6026658Y3292094D01*
X6047231Y3298952D01*
X6054090Y3298952D01*
X6074409Y3292094D01*
X6088125Y3278631D01*
X6094984Y3258057D01*
X6094984Y3251200D01*
X6088125Y3230879D01*
X6074409Y3217163D01*
X6047231Y3210305D01*
X6013195Y3210305D01*
X5979159Y3217163D01*
X5958586Y3230879D01*
X5951727Y3251200D01*
X5951727Y3264915D01*
X5958586Y3285236D01*
X5972302Y3292094D01*
X6074409Y3083560D02*
G01*
X6088125Y3090418D01*
X6094984Y3110737D01*
X6094984Y3124454D01*
X6088125Y3144773D01*
X6067806Y3158489D01*
X6033515Y3165347D01*
X5999479Y3165347D01*
X5972302Y3158489D01*
X5958586Y3144773D01*
X5951727Y3124454D01*
X5951727Y3117595D01*
X5958586Y3097276D01*
X5972302Y3083560D01*
X5992622Y3076702D01*
X5999479Y3076702D01*
X6020054Y3083560D01*
X6033515Y3097276D01*
X6040374Y3117595D01*
X6040374Y3124454D01*
X6033515Y3144773D01*
X6020054Y3158489D01*
X5999479Y3165347D01*
X5866384Y3695700D02*
G01*
X5723127Y3695700D01*
X5866384Y3695700D02*
G01*
X5866384Y3634231D01*
X5859525Y3613912D01*
X5852668Y3607054D01*
X5839206Y3600195D01*
X5825490Y3600195D01*
X5811774Y3607054D01*
X5804915Y3613912D01*
X5798058Y3634231D01*
X5798058Y3695700D02*
G01*
X5798058Y3634231D01*
X5791454Y3613912D01*
X5784595Y3607054D01*
X5770879Y3600195D01*
X5750559Y3600195D01*
X5736843Y3607054D01*
X5729986Y3613912D01*
X5723127Y3634231D01*
X5723127Y3695700D01*
X5866384Y3555237D02*
G01*
X5764022Y3555237D01*
X5743702Y3548379D01*
X5729986Y3534918D01*
X5723127Y3514344D01*
X5723127Y3500628D01*
X5729986Y3480307D01*
X5743702Y3466592D01*
X5764022Y3459734D01*
X5866384Y3459734D01*
X5832347Y3312413D02*
G01*
X5845809Y3319271D01*
X5859525Y3332987D01*
X5866384Y3346704D01*
X5866384Y3373881D01*
X5859525Y3387597D01*
X5845809Y3401060D01*
X5832347Y3407918D01*
X5811774Y3414776D01*
X5777738Y3414776D01*
X5757163Y3407918D01*
X5743702Y3401060D01*
X5729986Y3387597D01*
X5723127Y3373881D01*
X5723127Y3346704D01*
X5729986Y3332987D01*
X5743702Y3319271D01*
X5757163Y3312413D01*
X5866384Y3267455D02*
G01*
X5723127Y3267455D01*
X5866384Y3171952D02*
G01*
X5770879Y3267455D01*
X5804915Y3233420D02*
G01*
X5723127Y3171952D01*
D10*
X8623300Y4287012D02*
G01*
X8623300Y4220210D01*
X8623300Y4220210D02*
G01*
X8661400Y4220210D01*
X8682481Y4197857D02*
G01*
X8739631Y4197857D01*
X8760713Y4287012D02*
G01*
X8760713Y4220210D01*
X8781795Y4287012D02*
G01*
X8781795Y4220210D01*
X8781795Y4287012D02*
G01*
X8807195Y4220210D01*
X8832595Y4287012D02*
G01*
X8807195Y4220210D01*
X8832595Y4287012D02*
G01*
X8832595Y4220210D01*
X8853677Y4287012D02*
G01*
X8853677Y4239260D01*
X8856725Y4229862D01*
X8863329Y4223512D01*
X8872727Y4220210D01*
X8879077Y4220210D01*
X8888729Y4223512D01*
X8895079Y4229862D01*
X8898127Y4239260D01*
X8898127Y4287012D01*
X8919209Y4274312D02*
G01*
X8925559Y4277613D01*
X8935211Y4287012D01*
X8935211Y4220210D01*
X8636000Y3563112D02*
G01*
X8636000Y3496310D01*
X8636000Y3563112D02*
G01*
X8664702Y3563112D01*
X8674100Y3560063D01*
X8677402Y3556762D01*
X8680450Y3550412D01*
X8680450Y3544062D01*
X8677402Y3537712D01*
X8674100Y3534410D01*
X8664702Y3531362D01*
X8636000Y3531362D01*
X8658352Y3531362D02*
G01*
X8680450Y3496310D01*
X8701531Y3473957D02*
G01*
X8758936Y3473957D01*
X8779763Y3563112D02*
G01*
X8779763Y3496310D01*
X8800845Y3563112D02*
G01*
X8800845Y3496310D01*
X8800845Y3563112D02*
G01*
X8826245Y3496310D01*
X8851645Y3563112D02*
G01*
X8826245Y3496310D01*
X8851645Y3563112D02*
G01*
X8851645Y3496310D01*
X8872727Y3563112D02*
G01*
X8872727Y3515360D01*
X8876029Y3505962D01*
X8882379Y3499612D01*
X8891777Y3496310D01*
X8898127Y3496310D01*
X8907779Y3499612D01*
X8914129Y3505962D01*
X8917177Y3515360D01*
X8917177Y3563112D01*
X8040624Y3200654D02*
G01*
X8031734Y3191510D01*
X8027161Y3177794D01*
X8027161Y3159505D01*
X8031734Y3146044D01*
X8040624Y3136900D01*
X8049768Y3136900D01*
X8058911Y3141471D01*
X8063484Y3146044D01*
X8068056Y3155187D01*
X8077200Y3182365D01*
X8081518Y3191510D01*
X8086090Y3196081D01*
X8095234Y3200654D01*
X8108950Y3200654D01*
X8118093Y3191510D01*
X8122665Y3177794D01*
X8122665Y3159505D01*
X8118093Y3146044D01*
X8108950Y3136900D01*
X8027161Y3230626D02*
G01*
X8122665Y3230626D01*
X8027161Y3230626D02*
G01*
X8027161Y3271520D01*
X8031734Y3284981D01*
X8036306Y3289554D01*
X8045195Y3294126D01*
X8054340Y3294126D01*
X8063484Y3289554D01*
X8068056Y3284981D01*
X8072627Y3271520D01*
X8072627Y3230626D01*
X8072627Y3262376D02*
G01*
X8122665Y3294126D01*
X8027161Y3324097D02*
G01*
X8122665Y3360420D01*
X8027161Y3396995D02*
G01*
X8122665Y3360420D01*
X8154415Y3426968D02*
G01*
X8154415Y3508755D01*
X8045195Y3538728D02*
G01*
X8040624Y3547871D01*
X8027161Y3561334D01*
X8122665Y3561334D01*
X8053324Y4280154D02*
G01*
X8044434Y4271010D01*
X8039861Y4257294D01*
X8039861Y4239005D01*
X8044434Y4225544D01*
X8053324Y4216400D01*
X8062468Y4216400D01*
X8071611Y4220971D01*
X8076184Y4225544D01*
X8080756Y4234687D01*
X8089900Y4261865D01*
X8094218Y4271010D01*
X8098790Y4275581D01*
X8107934Y4280154D01*
X8121650Y4280154D01*
X8130793Y4271010D01*
X8135365Y4257294D01*
X8135365Y4239005D01*
X8130793Y4225544D01*
X8121650Y4216400D01*
X8039861Y4310126D02*
G01*
X8135365Y4310126D01*
X8039861Y4310126D02*
G01*
X8039861Y4351020D01*
X8044434Y4364481D01*
X8049006Y4369054D01*
X8057895Y4373626D01*
X8067040Y4373626D01*
X8076184Y4369054D01*
X8080756Y4364481D01*
X8085327Y4351020D01*
X8085327Y4310126D01*
X8085327Y4341876D02*
G01*
X8135365Y4373626D01*
X8039861Y4403597D02*
G01*
X8135365Y4439920D01*
X8039861Y4476495D02*
G01*
X8135365Y4439920D01*
X8167115Y4506468D02*
G01*
X8167115Y4588255D01*
X8062468Y4622800D02*
G01*
X8057895Y4622800D01*
X8049006Y4627371D01*
X8044434Y4631944D01*
X8039861Y4640834D01*
X8039861Y4659121D01*
X8044434Y4668265D01*
X8049006Y4672837D01*
X8057895Y4677410D01*
X8067040Y4677410D01*
X8076184Y4672837D01*
X8089900Y4663694D01*
X8135365Y4618228D01*
X8135365Y4681728D01*
X6210300Y5734812D02*
G01*
X6216650Y5738113D01*
X6226302Y5747512D01*
X6226302Y5680710D01*
X6250431Y5731510D02*
G01*
X6250431Y5734812D01*
X6253479Y5741162D01*
X6256781Y5744463D01*
X6263131Y5747512D01*
X6275831Y5747512D01*
X6282181Y5744463D01*
X6285484Y5741162D01*
X6288531Y5734812D01*
X6288531Y5728462D01*
X6285484Y5722112D01*
X6279134Y5712460D01*
X6247129Y5680710D01*
X6291834Y5680710D01*
X6312661Y5747512D02*
G01*
X6338315Y5680710D01*
X6363715Y5747512D02*
G01*
X6338315Y5680710D01*
X6384543Y5658357D02*
G01*
X6441947Y5658357D01*
X6463029Y5747512D02*
G01*
X6463029Y5680710D01*
X6483858Y5747512D02*
G01*
X6483858Y5680710D01*
X6483858Y5747512D02*
G01*
X6528561Y5680710D01*
X6528561Y5747512D02*
G01*
X6528561Y5680710D01*
X2298700Y3186429D02*
G01*
X2298700Y2995421D01*
X2425954Y3186429D02*
G01*
X2425954Y2995421D01*
X2298700Y3095497D02*
G01*
X2425954Y3095497D01*
X2485897Y3186429D02*
G01*
X2485897Y2995421D01*
X2485897Y3186429D02*
G01*
X2567686Y3186429D01*
X2595118Y3177286D01*
X2604261Y3168142D01*
X2613152Y3149854D01*
X2613152Y3131820D01*
X2604261Y3113531D01*
X2595118Y3104387D01*
X2567686Y3095497D01*
X2485897Y3095497D02*
G01*
X2567686Y3095497D01*
X2595118Y3086354D01*
X2604261Y3077210D01*
X2613152Y3058921D01*
X2613152Y3031744D01*
X2604261Y3013710D01*
X2595118Y3004565D01*
X2567686Y2995421D01*
X2485897Y2995421D01*
X2673350Y3186429D02*
G01*
X2673350Y2995421D01*
X2673350Y3186429D02*
G01*
X2755138Y3186429D01*
X2782315Y3177286D01*
X2791459Y3168142D01*
X2800604Y3149854D01*
X2800604Y3131820D01*
X2791459Y3113531D01*
X2782315Y3104387D01*
X2755138Y3095497D01*
X2673350Y3095497D01*
X2736850Y3095497D02*
G01*
X2800604Y2995421D01*
X2860547Y3186429D02*
G01*
X2860547Y2995421D01*
X2920491Y3186429D02*
G01*
X2920491Y2995421D01*
X2920491Y3186429D02*
G01*
X2984245Y3186429D01*
X3011424Y3177286D01*
X3029711Y3158997D01*
X3038602Y3140963D01*
X3047745Y3113531D01*
X3047745Y3068065D01*
X3038602Y3040887D01*
X3029711Y3022600D01*
X3011424Y3004565D01*
X2984245Y2995421D01*
X2920491Y2995421D01*
X3244088Y3140963D02*
G01*
X3234943Y3158997D01*
X3216909Y3177286D01*
X3198622Y3186429D01*
X3162300Y3186429D01*
X3144265Y3177286D01*
X3125977Y3158997D01*
X3116834Y3140963D01*
X3107690Y3113531D01*
X3107690Y3068065D01*
X3116834Y3040887D01*
X3125977Y3022600D01*
X3144265Y3004565D01*
X3162300Y2995421D01*
X3198622Y2995421D01*
X3216909Y3004565D01*
X3234943Y3022600D01*
X3244088Y3040887D01*
X3244088Y3068065D01*
X3198622Y3068065D02*
G01*
X3244088Y3068065D01*
X3304031Y3186429D02*
G01*
X3304031Y2995421D01*
X3304031Y3186429D02*
G01*
X3422395Y3186429D01*
X3304031Y3095497D02*
G01*
X3376929Y3095497D01*
X3304031Y2995421D02*
G01*
X3422395Y2995421D01*
X8597900Y4998212D02*
G01*
X8597900Y4931410D01*
X8597900Y4998212D02*
G01*
X8626602Y4998212D01*
X8636000Y4995163D01*
X8639302Y4991862D01*
X8642350Y4985512D01*
X8642350Y4979162D01*
X8639302Y4972812D01*
X8636000Y4969510D01*
X8626602Y4966462D01*
X8597900Y4966462D01*
X8620252Y4966462D02*
G01*
X8642350Y4931410D01*
X8663431Y4998212D02*
G01*
X8663431Y4931410D01*
X8663431Y4998212D02*
G01*
X8692134Y4998212D01*
X8701531Y4995163D01*
X8704834Y4991862D01*
X8707881Y4985512D01*
X8707881Y4975860D01*
X8704834Y4969510D01*
X8701531Y4966462D01*
X8692134Y4963160D01*
X8663431Y4963160D01*
X8728963Y4998212D02*
G01*
X8728963Y4931410D01*
X8750045Y4909057D02*
G01*
X8807195Y4909057D01*
X8876029Y4982210D02*
G01*
X8872727Y4988813D01*
X8866377Y4995163D01*
X8860027Y4998212D01*
X8847327Y4998212D01*
X8840977Y4995163D01*
X8834627Y4988813D01*
X8831325Y4982210D01*
X8828277Y4972812D01*
X8828277Y4956810D01*
X8831325Y4947412D01*
X8834627Y4941062D01*
X8840977Y4934712D01*
X8847327Y4931410D01*
X8860027Y4931410D01*
X8866377Y4934712D01*
X8872727Y4941062D01*
X8876029Y4947412D01*
X8916161Y4998212D02*
G01*
X8909811Y4995163D01*
X8903461Y4988813D01*
X8900159Y4982210D01*
X8897111Y4972812D01*
X8897111Y4956810D01*
X8900159Y4947412D01*
X8903461Y4941062D01*
X8909811Y4934712D01*
X8916161Y4931410D01*
X8928861Y4931410D01*
X8935211Y4934712D01*
X8941561Y4941062D01*
X8944609Y4947412D01*
X8947911Y4956810D01*
X8947911Y4972812D01*
X8944609Y4982210D01*
X8941561Y4988813D01*
X8935211Y4995163D01*
X8928861Y4998212D01*
X8916161Y4998212D01*
X8968993Y4998212D02*
G01*
X8968993Y4931410D01*
X8968993Y4998212D02*
G01*
X9013443Y4931410D01*
X9013443Y4998212D02*
G01*
X9013443Y4931410D01*
X9034525Y4998212D02*
G01*
X9034525Y4931410D01*
X9034525Y4998212D02*
G01*
X9078975Y4931410D01*
X9078975Y4998212D02*
G01*
X9078975Y4931410D01*
X5461000Y5760212D02*
G01*
X5461000Y5693410D01*
X5461000Y5693410D02*
G01*
X5499100Y5693410D01*
X5520181Y5671057D02*
G01*
X5577331Y5671057D01*
X5598413Y5760212D02*
G01*
X5598413Y5693410D01*
X5598413Y5760212D02*
G01*
X5620765Y5760212D01*
X5630163Y5757163D01*
X5636513Y5750813D01*
X5639815Y5744210D01*
X5643118Y5734812D01*
X5643118Y5718810D01*
X5639815Y5709412D01*
X5636513Y5703062D01*
X5630163Y5696712D01*
X5620765Y5693410D01*
X5598413Y5693410D01*
X5711697Y5744210D02*
G01*
X5708650Y5750813D01*
X5702300Y5757163D01*
X5695695Y5760212D01*
X5682995Y5760212D01*
X5676645Y5757163D01*
X5670295Y5750813D01*
X5667247Y5744210D01*
X5663945Y5734812D01*
X5663945Y5718810D01*
X5667247Y5709412D01*
X5670295Y5703062D01*
X5676645Y5696712D01*
X5682995Y5693410D01*
X5695695Y5693410D01*
X5702300Y5696712D01*
X5708650Y5703062D01*
X5711697Y5709412D01*
X7124700Y5734812D02*
G01*
X7124700Y5668010D01*
X7124700Y5734812D02*
G01*
X7153402Y5734812D01*
X7162800Y5731763D01*
X7166102Y5728462D01*
X7169150Y5722112D01*
X7169150Y5715762D01*
X7166102Y5709412D01*
X7162800Y5706110D01*
X7153402Y5703062D01*
X7124700Y5703062D01*
X7147052Y5703062D02*
G01*
X7169150Y5668010D01*
X7190231Y5645657D02*
G01*
X7247636Y5645657D01*
X7268463Y5734812D02*
G01*
X7268463Y5668010D01*
X7268463Y5734812D02*
G01*
X7290815Y5734812D01*
X7300213Y5731763D01*
X7306818Y5725413D01*
X7309865Y5718810D01*
X7313168Y5709412D01*
X7313168Y5693410D01*
X7309865Y5684012D01*
X7306818Y5677662D01*
X7300213Y5671312D01*
X7290815Y5668010D01*
X7268463Y5668010D01*
X7381747Y5718810D02*
G01*
X7378700Y5725413D01*
X7372350Y5731763D01*
X7366000Y5734812D01*
X7353045Y5734812D01*
X7346695Y5731763D01*
X7340345Y5725413D01*
X7337297Y5718810D01*
X7333995Y5709412D01*
X7333995Y5693410D01*
X7337297Y5684012D01*
X7340345Y5677662D01*
X7346695Y5671312D01*
X7353045Y5668010D01*
X7366000Y5668010D01*
X7372350Y5671312D01*
X7378700Y5677662D01*
X7381747Y5684012D01*
X8470900Y2323084D02*
G01*
X8470900Y2401062D01*
X8465820Y2416555D01*
X8455406Y2426970D01*
X8439658Y2432050D01*
X8429243Y2432050D01*
X8413750Y2426970D01*
X8403336Y2416555D01*
X8398256Y2401062D01*
X8398256Y2323084D01*
X8363965Y2343912D02*
G01*
X8353552Y2338578D01*
X8337804Y2323084D01*
X8337804Y2432050D01*
D11*
X7302500Y4953000D02*
G01*
X7302500Y553008D01*
X5202504Y553008D01*
X5202504Y4953000D01*
X7302500Y4953000D01*
D12*
X7219950Y3956050D02*
G01*
X7219950Y3206750D01*
X6724650Y3206750D01*
X6724650Y3956050D01*
X7219950Y3956050D01*
X6711950Y3892550D02*
G01*
X6711950Y3854450D01*
X6394450Y3854450D01*
X6394450Y3892550D01*
X6711950Y3892550D01*
X6711950Y3295650D02*
G01*
X6711950Y3257550D01*
X6394450Y3257550D01*
X6394450Y3295650D01*
X6711950Y3295650D01*
X6711950Y3587750D02*
G01*
X6711950Y3549650D01*
X6394450Y3549650D01*
X6394450Y3587750D01*
X6711950Y3587750D01*
X6711950Y3740150D02*
G01*
X6711950Y3702050D01*
X6394450Y3702050D01*
X6394450Y3740150D01*
X6711950Y3740150D01*
X6711950Y3448050D02*
G01*
X6711950Y3409950D01*
X6394450Y3409950D01*
X6394450Y3448050D01*
X6711950Y3448050D01*
X6527800Y2908300D02*
G01*
X6527800Y1663700D01*
X5270500Y1663700D01*
X5270500Y2908300D01*
X6527800Y2908300D01*
X7035800Y2667000D02*
G01*
X7035800Y1714500D01*
X6705600Y1714500D01*
X6705600Y2667000D01*
X7035800Y2667000D01*
X5511800Y4165600D02*
G01*
X5511800Y3771900D01*
X5384800Y3771900D01*
X5384800Y4165600D01*
X5511800Y4165600D01*
X8165084Y3597910D02*
G01*
X8345170Y3597910D01*
X8345170Y3673094D01*
X8165084Y3673094D01*
X8165084Y3597910D01*
X8165084Y4193031D01*
X9425177Y4193031D01*
X9425177Y3597910D01*
X8165084Y3597910D01*
X8495029Y3597910D02*
G01*
X8495029Y3673094D01*
X9094977Y3673094D01*
X9094977Y3597910D01*
X8495029Y3597910D01*
X9245091Y3597910D02*
G01*
X9245091Y3673094D01*
X9425177Y3673094D01*
X9425177Y3597910D01*
X9245091Y3597910D01*
X8165084Y3822954D02*
G01*
X8240013Y3822954D01*
X8240013Y4118102D01*
X8795004Y4118102D01*
X9349993Y4118102D01*
X9349993Y3822954D01*
X9425177Y3822954D01*
X8165084Y2874010D02*
G01*
X8345170Y2874010D01*
X8345170Y2949194D01*
X8165084Y2949194D01*
X8165084Y2874010D01*
X8165084Y3469131D01*
X9425177Y3469131D01*
X9425177Y2874010D01*
X8165084Y2874010D01*
X8495029Y2874010D02*
G01*
X8495029Y2949194D01*
X9094977Y2949194D01*
X9094977Y2874010D01*
X8495029Y2874010D01*
X9245091Y2874010D02*
G01*
X9245091Y2949194D01*
X9425177Y2949194D01*
X9425177Y2874010D01*
X9245091Y2874010D01*
X8165084Y3099054D02*
G01*
X8240013Y3099054D01*
X8240013Y3394202D01*
X8795004Y3394202D01*
X9349993Y3394202D01*
X9349993Y3099054D01*
X9425177Y3099054D01*
X7404100Y3860800D02*
G01*
X7404100Y3683000D01*
X7480300Y3683000D01*
X7480300Y3860800D01*
X7404100Y3860800D01*
X8013700Y3860800D01*
X8013700Y2844800D01*
X7404100Y2844800D01*
X7404100Y3860800D01*
X7404100Y3530600D02*
G01*
X7480300Y3530600D01*
X7480300Y3175000D01*
X7404100Y3175000D01*
X7404100Y3530600D01*
X7404100Y3022600D02*
G01*
X7480300Y3022600D01*
X7480300Y2844800D01*
X7404100Y2844800D01*
X7404100Y3022600D01*
X7632700Y3860800D02*
G01*
X7632700Y3784600D01*
X7937500Y3784600D01*
X7937500Y2921000D01*
X7632700Y2921000D01*
X7632700Y2844800D01*
X7416800Y4953000D02*
G01*
X7416800Y4775200D01*
X7493000Y4775200D01*
X7493000Y4953000D01*
X7416800Y4953000D01*
X8026400Y4953000D01*
X8026400Y3937000D01*
X7416800Y3937000D01*
X7416800Y4953000D01*
X7416800Y4622800D02*
G01*
X7493000Y4622800D01*
X7493000Y4267200D01*
X7416800Y4267200D01*
X7416800Y4622800D01*
X7416800Y4114800D02*
G01*
X7493000Y4114800D01*
X7493000Y3937000D01*
X7416800Y3937000D01*
X7416800Y4114800D01*
X7645400Y4953000D02*
G01*
X7645400Y4876800D01*
X7950200Y4876800D01*
X7950200Y4013200D01*
X7645400Y4013200D01*
X7645400Y3937000D01*
X6006084Y5058410D02*
G01*
X6186170Y5058410D01*
X6186170Y5133594D01*
X6006084Y5133594D01*
X6006084Y5058410D01*
X6006084Y5653531D01*
X6766052Y5653531D01*
X6766052Y5058410D01*
X6006084Y5058410D01*
X6336029Y5058410D02*
G01*
X6336029Y5133594D01*
X6436106Y5133594D01*
X6436106Y5058410D01*
X6336029Y5058410D01*
X6586220Y5058410D02*
G01*
X6586220Y5133594D01*
X6766052Y5133594D01*
X6766052Y5058410D01*
X6586220Y5058410D01*
X6006084Y5283454D02*
G01*
X6081013Y5283454D01*
X6081013Y5578602D01*
X6386068Y5578602D01*
X6691122Y5578602D01*
X6691122Y5283454D01*
X6766052Y5283454D01*
X5055897Y5185514D02*
G01*
X715896Y5185514D01*
X5055897Y845512D02*
G01*
X5055897Y5185514D01*
X5055897Y845512D02*
G01*
X715896Y845512D01*
X715896Y845512D02*
G01*
X715896Y5185514D01*
X8177784Y4321810D02*
G01*
X8357870Y4321810D01*
X8357870Y4396994D01*
X8177784Y4396994D01*
X8177784Y4321810D01*
X8177784Y4916931D01*
X9437877Y4916931D01*
X9437877Y4321810D01*
X8177784Y4321810D01*
X8507729Y4321810D02*
G01*
X8507729Y4396994D01*
X9107677Y4396994D01*
X9107677Y4321810D01*
X8507729Y4321810D01*
X9257791Y4321810D02*
G01*
X9257791Y4396994D01*
X9437877Y4396994D01*
X9437877Y4321810D01*
X9257791Y4321810D01*
X8177784Y4546854D02*
G01*
X8252713Y4546854D01*
X8252713Y4842002D01*
X8807704Y4842002D01*
X9362693Y4842002D01*
X9362693Y4546854D01*
X9437877Y4546854D01*
X5193284Y5071110D02*
G01*
X5373370Y5071110D01*
X5373370Y5146294D01*
X5193284Y5146294D01*
X5193284Y5071110D01*
X5193284Y5666231D01*
X5953252Y5666231D01*
X5953252Y5071110D01*
X5193284Y5071110D01*
X5523229Y5071110D02*
G01*
X5523229Y5146294D01*
X5623306Y5146294D01*
X5623306Y5071110D01*
X5523229Y5071110D01*
X5773420Y5071110D02*
G01*
X5773420Y5146294D01*
X5953252Y5146294D01*
X5953252Y5071110D01*
X5773420Y5071110D01*
X5193284Y5296154D02*
G01*
X5268213Y5296154D01*
X5268213Y5591302D01*
X5573268Y5591302D01*
X5878322Y5591302D01*
X5878322Y5296154D01*
X5953252Y5296154D01*
X6818884Y5045710D02*
G01*
X6998970Y5045710D01*
X6998970Y5120894D01*
X6818884Y5120894D01*
X6818884Y5045710D01*
X6818884Y5640831D01*
X7578852Y5640831D01*
X7578852Y5045710D01*
X6818884Y5045710D01*
X7148829Y5045710D02*
G01*
X7148829Y5120894D01*
X7248906Y5120894D01*
X7248906Y5045710D01*
X7148829Y5045710D01*
X7399020Y5045710D02*
G01*
X7399020Y5120894D01*
X7578852Y5120894D01*
X7578852Y5045710D01*
X7399020Y5045710D01*
X6818884Y5270754D02*
G01*
X6893813Y5270754D01*
X6893813Y5565902D01*
X7198868Y5565902D01*
X7503922Y5565902D01*
X7503922Y5270754D01*
X7578852Y5270754D01*
X7493000Y863600D02*
G01*
X7493000Y2590800D01*
X7683500Y2781300D02*
G01*
X9080195Y2781300D01*
X9271000Y858403D02*
G01*
X9271000Y2592400D01*
X9072996Y660400D02*
G01*
X8826500Y660400D01*
X7689006Y660400D02*
G01*
X7937500Y660400D01*
X8826500Y495300D02*
G01*
X7937500Y495300D01*
X7937500Y660400D01*
X8826500Y660400D01*
X8826500Y495300D01*
G75*
G01*
X9271000Y2592403D02*
G03*
X9080195Y2781308I-190501J-1603D01*
G75*
G01*
X7493000Y863600D02*
G03*
X7689012Y660527I203200J0D01*
G75*
G01*
X9072999Y660400D02*
G03*
X9271000Y858401I-5199J203200D01*
G75*
G01*
X7683500Y2781300D02*
G03*
X7493000Y2590800I0J-190500D01*
G75*
G01
X6552336Y4445000D02*
G03X6552336Y4445000I-278536J0D01*
G75*
G01
X6522923Y876300D02*
G03X6522923Y876300I-261823J0D01*
G75*
G01
X6452184Y2286000D02*
G03X6452184Y2286000I-559384J0D01*
G75*
G01
X6978294Y2552700D02*
G03X6978294Y2552700I-56794J0D01*
M02*
