M48
METRIC,LZ,000.000
;FILE_FORMAT=3:3
;TYPE=PLATED
;Layer: PTH_Through
;EasyEDA v6.5.54, 2026-03-05 20:34:58
;552c0133e659496384f9cb95b415f2fe,f330d47962804ca0b679ce51ac6e9e7f,10
;Gerber Generator version 0.2
;Holesize 1 = 0.306 mm
T01C0.306
;Holesize 2 = 0.889 mm
T02C0.889
;Holesize 3 = 0.901 mm
T03C0.901
;Holesize 4 = 0.915 mm
T04C0.915
;Holesize 5 = 1.000 mm
T05C1.000
;Holesize 6 = 1.800 mm
T06C1.800
%
G05
G90
T01
X000762Y035167
X035353Y020877
X-004620Y035837
X036779Y022278
X-007641Y036488
X037330Y-031361
T02
X027178Y009271
X029718Y009271
X027178Y006731
X029718Y006731
X027178Y004191
X029718Y004191
X027178Y001651
X029718Y001651
X027178Y-000889
X029718Y-000889
X027178Y-003429
X029718Y-003429
X027178Y-005969
X029718Y-005969
X027178Y-008509
X029718Y-008509
X027178Y-011049
X029718Y-011049
X027178Y-013589
X029718Y-013589
X027178Y-016129
X029718Y-016129
X027178Y-018669
X029718Y-018669
X027178Y-021209
X029718Y-021209
X027178Y-023749
X029718Y-023749
X027178Y-026289
X029718Y-026289
X027178Y-028829
X029718Y-028829
X027178Y-031369
X029718Y-031369
X027178Y-033909
X029718Y-033909
X027178Y-036449
X029718Y-036449
X027178Y-038989
X029718Y-038989
T03
X025551Y019788
T04
X015243Y044069G85X015237Y044069
X012703Y044069G85X012697Y044069
X010161Y044069G85X010159Y044069
X007623Y044069G85X007617Y044069
X000765Y043942G85X000759Y043942
X-001775Y043942G85X-001781Y043942
X-021082Y036325G85X-021082Y036319
X-021082Y033785G85X-021082Y033779
X043177Y013335G85X043183Y013335
X045717Y013335G85X045723Y013335
X-021082Y026800G85X-021082Y026794
X-021082Y024260G85X-021082Y024254
X042796Y004826G85X042802Y004826
X045336Y004826G85X045342Y004826
X041018Y-019812G85X041024Y-019812
X043558Y-019812G85X043564Y-019812
X046100Y-019812G85X046102Y-019812
X-008506Y044069G85X-008512Y044069
X-011046Y044069G85X-011052Y044069
X-017650Y044196G85X-017656Y044196
X-020190Y044196G85X-020196Y044196
X043688Y-010226
X043688Y-007526
X043688Y-004826
X025551Y037788
X-015449Y019788
X-015449Y037788
T05
X034036Y-043307G85X034036Y-043307
X036576Y-043307G85X036576Y-043307
X039116Y-043307G85X039116Y-043307
X041656Y-043307G85X041656Y-043307
X044196Y-043307G85X044196Y-043307
X046736Y-043307G85X046736Y-043307
X049276Y-043307G85X049276Y-043307
X043356Y-030353G85X043356Y-030353
X039856Y-030353G85X039856Y-030353
T06
X043112Y027686
X034612Y027686
M30
