G04 Layer: TopLayer*
G04 EasyEDA v6.5.54, 2026-03-05 20:34:58*
G04 552c0133e659496384f9cb95b415f2fe,f330d47962804ca0b679ce51ac6e9e7f,10*
G04 Gerber Generator version 0.2*
G04 Scale: 100 percent, Rotated: No, Reflected: No *
G04 Dimensions in millimeters *
G04 leading zeros omitted , absolute positions ,4 integer and 5 decimal *
%FSLAX45Y45*%
%MOMM*%

%ADD10C,0.2540*%
%ADD11R,1.5240X1.5240*%
%ADD12C,1.5240*%
%ADD13C,3.5000*%
%ADD14R,1.5748X1.5748*%
%ADD15C,1.5748*%
%ADD16C,1.9304*%
%ADD17C,2.1844*%
%ADD18C,0.0107*%
%ADD19O,2.799994X1.799996*%
%ADD20C,0.6100*%

%LPD*%
D10*
X76200Y4394200D02*
G01*
X76200Y3516680D01*
X-850900Y4406900D02*
G01*
X-850900Y4297959D01*
X3535349Y2087651D02*
G01*
X3808298Y1814703D01*
X3808298Y-3077235D01*
X3915994Y-3184931D01*
X4185996Y-3184931D01*
X4335602Y-3035325D01*
X-850900Y4297959D02*
G01*
X-462000Y3909060D01*
X-462000Y3583736D01*
X-1104900Y4406900D02*
G01*
X-764108Y4066108D01*
X-764108Y3648760D01*
X3677945Y2227783D02*
G01*
X3985590Y1920138D01*
X3985590Y-3035325D01*
X-2108200Y2425700D02*
G01*
X-2217267Y2534767D01*
X-2217267Y3269132D01*
X-2108200Y3378200D01*
X4533900Y482600D02*
G01*
X4572000Y520700D01*
X4572000Y1333500D01*
X4368800Y-752602D02*
G01*
X4533900Y-587502D01*
X4533900Y482600D01*
X2971800Y673100D02*
G01*
X3732961Y-88061D01*
X3732961Y-3136087D01*
X4102100Y-1981200D02*
G01*
X4102100Y-2090140D01*
X4102100Y-2090140D02*
G01*
X4673600Y-2661640D01*
X4673600Y-4330725D01*
X4368800Y-482600D02*
G01*
X4102100Y-749300D01*
X4102100Y-1981200D01*
X2971800Y419100D02*
G01*
X2829407Y561492D01*
X2829407Y1038682D01*
X1642363Y2225725D01*
X1642363Y4034536D01*
X1270000Y4406900D01*
X-2108200Y3632200D02*
G01*
X-2108200Y3523259D01*
X-2108200Y2679700D02*
G01*
X-2108200Y2788640D01*
X-2108200Y2788640D02*
G01*
X-1997227Y2899613D01*
X-1997227Y3439515D01*
X-2080971Y3523259D01*
X-2108200Y3523259D01*
X1524000Y4406900D02*
G01*
X1524000Y4297959D01*
X2971800Y927100D02*
G01*
X2971800Y992987D01*
X1831492Y2133295D01*
X1831492Y3990467D01*
X1524000Y4297959D01*
X4279900Y482600D02*
G01*
X4279900Y591540D01*
X4279900Y591540D02*
G01*
X4318000Y629640D01*
X4318000Y1333500D01*
X-2108200Y3632200D02*
G01*
X-2108200Y3741140D01*
X-1765300Y4419600D02*
G01*
X-1765300Y4084040D01*
X-2108200Y3741140D01*
X3657600Y-4330725D02*
G01*
X3657600Y-1028700D01*
X2971800Y-342900D01*
X762000Y4406900D02*
G01*
X872667Y4517567D01*
X1073505Y4517567D01*
X1143000Y4448073D01*
X1143000Y4371060D01*
X1545793Y3968267D01*
X1545793Y2257856D01*
X2574036Y1229613D01*
X2574036Y652983D01*
X2680919Y546100D01*
X2755493Y546100D01*
X2844800Y456793D01*
X2844800Y-2247900D01*
X2971800Y-2374900D01*
X2717800Y-2374900D02*
G01*
X2497709Y-2154809D01*
X2497709Y1208557D01*
X1481404Y2224862D01*
X1481404Y3941495D01*
X1016000Y4406900D01*
D11*
G01*
X1524000Y4406900D03*
D12*
G01*
X1270000Y4406900D03*
G01*
X1016000Y4406900D03*
G01*
X762000Y4406900D03*
D13*
G01*
X4311192Y2768600D03*
G01*
X3461207Y2768600D03*
D14*
G01*
X2717800Y927100D03*
D15*
G01*
X2971800Y927100D03*
G01*
X2717800Y673100D03*
G01*
X2971800Y673100D03*
G01*
X2717800Y419100D03*
G01*
X2971800Y419100D03*
G01*
X2717800Y165100D03*
G01*
X2971800Y165100D03*
G01*
X2717800Y-88900D03*
G01*
X2971800Y-88900D03*
G01*
X2717800Y-342900D03*
G01*
X2971800Y-342900D03*
G01*
X2717800Y-596900D03*
G01*
X2971800Y-596900D03*
G01*
X2717800Y-850900D03*
G01*
X2971800Y-850900D03*
G01*
X2717800Y-1104900D03*
G01*
X2971800Y-1104900D03*
G01*
X2717800Y-1358900D03*
G01*
X2971800Y-1358900D03*
G01*
X2717800Y-1612900D03*
G01*
X2971800Y-1612900D03*
G01*
X2717800Y-1866900D03*
G01*
X2971800Y-1866900D03*
G01*
X2717800Y-2120900D03*
G01*
X2971800Y-2120900D03*
G01*
X2717800Y-2374900D03*
G01*
X2971800Y-2374900D03*
G01*
X2717800Y-2628900D03*
G01*
X2971800Y-2628900D03*
G01*
X2717800Y-2882900D03*
G01*
X2971800Y-2882900D03*
G01*
X2717800Y-3136900D03*
G01*
X2971800Y-3136900D03*
G01*
X2717800Y-3390900D03*
G01*
X2971800Y-3390900D03*
G01*
X2717800Y-3644900D03*
G01*
X2971800Y-3644900D03*
G01*
X2717800Y-3898900D03*
G01*
X2971800Y-3898900D03*
D16*
G01*
X3403600Y-4330725D03*
G01*
X3657600Y-4330725D03*
G01*
X3911600Y-4330725D03*
G01*
X4165600Y-4330725D03*
G01*
X4419600Y-4330725D03*
G01*
X4673600Y-4330725D03*
G01*
X4927600Y-4330725D03*
D17*
G01*
X4335602Y-3035325D03*
G01*
X3985590Y-3035325D03*
D11*
G01*
X76200Y4394200D03*
D12*
G01*
X-177800Y4394200D03*
D11*
G01*
X-2108200Y3632200D03*
D12*
G01*
X-2108200Y3378200D03*
D11*
G01*
X4318000Y1333500D03*
D12*
G01*
X4572000Y1333500D03*
D11*
G01*
X-2108200Y2679700D03*
D12*
G01*
X-2108200Y2425700D03*
D11*
G01*
X4279900Y482600D03*
D12*
G01*
X4533900Y482600D03*
D11*
G01*
X4102100Y-1981200D03*
D12*
G01*
X4356100Y-1981200D03*
G01*
X4610100Y-1981200D03*
D11*
G01*
X-850900Y4406900D03*
D12*
G01*
X-1104900Y4406900D03*
D11*
G01*
X-1765300Y4419600D03*
D12*
G01*
X-2019300Y4419600D03*
G01*
X4368800Y-1022604D03*
G01*
X4368800Y-752602D03*
G01*
X4368800Y-482600D03*
D19*
G01*
X2555087Y3778808D03*
G01*
X-1544904Y1978812D03*
G01*
X-1544904Y3778808D03*
G01*
X2555087Y1978812D03*
D20*
G01*
X76200Y3516680D03*
G01*
X3535349Y2087651D03*
G01*
X-462000Y3583736D03*
G01*
X3677945Y2227783D03*
G01*
X-764108Y3648760D03*
G01*
X3732961Y-3136087D03*
M02*
