G04 Layer: TopSilkscreenLayer*
G04 EasyEDA v6.5.54, 2026-03-05 20:34:58*
G04 552c0133e659496384f9cb95b415f2fe,f330d47962804ca0b679ce51ac6e9e7f,10*
G04 Gerber Generator version 0.2*
G04 Scale: 100 percent, Rotated: No, Reflected: No *
G04 Dimensions in millimeters *
G04 leading zeros omitted , absolute positions ,4 integer and 5 decimal *
%FSLAX45Y45*%
%MOMM*%

%ADD10C,0.2032*%
%ADD11C,0.1524*%
%ADD12C,0.1715*%
%ADD13C,0.2500*%
%ADD14C,0.2540*%
%ADD15C,0.3048*%
%ADD16C,0.0106*%

%LPD*%
D10*
X3302000Y3868165D02*
G01*
X3449320Y3868165D01*
X4607559Y3916171D02*
G01*
X4607559Y3769105D01*
X4533900Y3842765D02*
G01*
X4681220Y3842765D01*
D11*
X399288Y4051300D02*
G01*
X466090Y4051300D01*
X399288Y4051300D02*
G01*
X399288Y4092702D01*
X431038Y4051300D02*
G01*
X431038Y4076700D01*
X466090Y4051300D02*
G01*
X466090Y4092702D01*
X408686Y4158234D02*
G01*
X402336Y4151884D01*
X399288Y4142231D01*
X399288Y4129531D01*
X402336Y4120134D01*
X408686Y4113784D01*
X415290Y4113784D01*
X421640Y4116831D01*
X424688Y4120134D01*
X427990Y4126484D01*
X434340Y4145534D01*
X437388Y4151884D01*
X440690Y4154931D01*
X447040Y4158234D01*
X456438Y4158234D01*
X462788Y4151884D01*
X466090Y4142231D01*
X466090Y4129531D01*
X462788Y4120134D01*
X456438Y4113784D01*
X399288Y4179315D02*
G01*
X466090Y4179315D01*
X399288Y4179315D02*
G01*
X399288Y4207763D01*
X402336Y4217415D01*
X405638Y4220463D01*
X411988Y4223765D01*
X421640Y4223765D01*
X427990Y4220463D01*
X431038Y4217415D01*
X434340Y4207763D01*
X434340Y4179315D01*
X399288Y4251197D02*
G01*
X399288Y4285995D01*
X424688Y4266945D01*
X424688Y4276597D01*
X427990Y4282947D01*
X431038Y4285995D01*
X440690Y4289297D01*
X447040Y4289297D01*
X456438Y4285995D01*
X462788Y4279645D01*
X466090Y4270247D01*
X466090Y4260595D01*
X462788Y4251197D01*
X459740Y4247895D01*
X453390Y4244847D01*
X415290Y4313428D02*
G01*
X411988Y4313428D01*
X405638Y4316729D01*
X402336Y4319778D01*
X399288Y4326128D01*
X399288Y4338828D01*
X402336Y4345178D01*
X405638Y4348479D01*
X411988Y4351781D01*
X418338Y4351781D01*
X424688Y4348479D01*
X434340Y4342129D01*
X466090Y4310379D01*
X466090Y4354829D01*
X488441Y4375912D02*
G01*
X488441Y4433062D01*
X415290Y4501895D02*
G01*
X408686Y4498594D01*
X402336Y4492244D01*
X399288Y4485894D01*
X399288Y4473194D01*
X402336Y4466844D01*
X408686Y4460494D01*
X415290Y4457192D01*
X424688Y4454144D01*
X440690Y4454144D01*
X450088Y4457192D01*
X456438Y4460494D01*
X462788Y4466844D01*
X466090Y4473194D01*
X466090Y4485894D01*
X462788Y4492244D01*
X456438Y4498594D01*
X450088Y4501895D01*
X399288Y4542028D02*
G01*
X402336Y4535678D01*
X408686Y4529328D01*
X415290Y4526026D01*
X424688Y4522723D01*
X440690Y4522723D01*
X450088Y4526026D01*
X456438Y4529328D01*
X462788Y4535678D01*
X466090Y4542028D01*
X466090Y4554728D01*
X462788Y4561078D01*
X456438Y4567428D01*
X450088Y4570476D01*
X440690Y4573778D01*
X424688Y4573778D01*
X415290Y4570476D01*
X408686Y4567428D01*
X402336Y4561078D01*
X399288Y4554728D01*
X399288Y4542028D01*
X399288Y4594860D02*
G01*
X466090Y4594860D01*
X399288Y4594860D02*
G01*
X466090Y4639310D01*
X399288Y4639310D02*
G01*
X466090Y4639310D01*
X399288Y4660392D02*
G01*
X466090Y4660392D01*
X399288Y4660392D02*
G01*
X466090Y4704842D01*
X399288Y4704842D02*
G01*
X466090Y4704842D01*
X3937055Y2132584D02*
G01*
X3937055Y2210562D01*
X3931975Y2226055D01*
X3921561Y2236470D01*
X3905813Y2241550D01*
X3895399Y2241550D01*
X3879905Y2236470D01*
X3869491Y2226055D01*
X3864411Y2210562D01*
X3864411Y2132584D01*
X3778051Y2132584D02*
G01*
X3830121Y2205228D01*
X3752143Y2205228D01*
X3778051Y2132584D02*
G01*
X3778051Y2241550D01*
X3239521Y-1485897D02*
G01*
X3130555Y-1485897D01*
X3239521Y-1485897D02*
G01*
X3239521Y-1532633D01*
X3234441Y-1548127D01*
X3229107Y-1553461D01*
X3218693Y-1558541D01*
X3208279Y-1558541D01*
X3197865Y-1553461D01*
X3192785Y-1548127D01*
X3187705Y-1532633D01*
X3187705Y-1485897D01*
X3187705Y-1522219D02*
G01*
X3130555Y-1558541D01*
X3239521Y-1592831D02*
G01*
X3130555Y-1592831D01*
X3239521Y-1592831D02*
G01*
X3239521Y-1639567D01*
X3234441Y-1655315D01*
X3229107Y-1660395D01*
X3218693Y-1665729D01*
X3203199Y-1665729D01*
X3192785Y-1660395D01*
X3187705Y-1655315D01*
X3182371Y-1639567D01*
X3182371Y-1592831D01*
X3239521Y-1700019D02*
G01*
X3130555Y-1700019D01*
X3218693Y-1734309D02*
G01*
X3224027Y-1744723D01*
X3239521Y-1760217D01*
X3130555Y-1760217D01*
X4332734Y-2635250D02*
G01*
X4332734Y-2557271D01*
X4327654Y-2541778D01*
X4317240Y-2531363D01*
X4301492Y-2526284D01*
X4291078Y-2526284D01*
X4275584Y-2531363D01*
X4265170Y-2541778D01*
X4260090Y-2557271D01*
X4260090Y-2635250D01*
X4215386Y-2635250D02*
G01*
X4158236Y-2635250D01*
X4189224Y-2593594D01*
X4173730Y-2593594D01*
X4163316Y-2588513D01*
X4158236Y-2583434D01*
X4152902Y-2567686D01*
X4152902Y-2557271D01*
X4158236Y-2541778D01*
X4168650Y-2531363D01*
X4184144Y-2526284D01*
X4199638Y-2526284D01*
X4215386Y-2531363D01*
X4220466Y-2536444D01*
X4225800Y-2546857D01*
D12*
X3505192Y-3643386D02*
G01*
X3505192Y-3703838D01*
X3505192Y-3643386D02*
G01*
X3528306Y-3703838D01*
X3551420Y-3643386D02*
G01*
X3528306Y-3703838D01*
X3551420Y-3643386D02*
G01*
X3551420Y-3703838D01*
X3593584Y-3643386D02*
G01*
X3570470Y-3703838D01*
X3593584Y-3643386D02*
G01*
X3616698Y-3703838D01*
X3579106Y-3683772D02*
G01*
X3608062Y-3683772D01*
X3635748Y-3643386D02*
G01*
X3676134Y-3703838D01*
X3676134Y-3643386D02*
G01*
X3635748Y-3703838D01*
X3542784Y-3828552D02*
G01*
X3539736Y-3837188D01*
X3534148Y-3843030D01*
X3525512Y-3845824D01*
X3522464Y-3845824D01*
X3513828Y-3843030D01*
X3507986Y-3837188D01*
X3505192Y-3828552D01*
X3505192Y-3825758D01*
X3507986Y-3817122D01*
X3513828Y-3811280D01*
X3522464Y-3808486D01*
X3525512Y-3808486D01*
X3534148Y-3811280D01*
X3539736Y-3817122D01*
X3542784Y-3828552D01*
X3542784Y-3843030D01*
X3539736Y-3857508D01*
X3534148Y-3866144D01*
X3525512Y-3868938D01*
X3519670Y-3868938D01*
X3511034Y-3866144D01*
X3507986Y-3860302D01*
X3576312Y-3808486D02*
G01*
X3567422Y-3811280D01*
X3564628Y-3817122D01*
X3564628Y-3822710D01*
X3567422Y-3828552D01*
X3573264Y-3831600D01*
X3584948Y-3834394D01*
X3593584Y-3837188D01*
X3599172Y-3843030D01*
X3602220Y-3848872D01*
X3602220Y-3857508D01*
X3599172Y-3863350D01*
X3596378Y-3866144D01*
X3587742Y-3868938D01*
X3576312Y-3868938D01*
X3567422Y-3866144D01*
X3564628Y-3863350D01*
X3561834Y-3857508D01*
X3561834Y-3848872D01*
X3564628Y-3843030D01*
X3570470Y-3837188D01*
X3579106Y-3834394D01*
X3590536Y-3831600D01*
X3596378Y-3828552D01*
X3599172Y-3822710D01*
X3599172Y-3817122D01*
X3596378Y-3811280D01*
X3587742Y-3808486D01*
X3576312Y-3808486D01*
X3627112Y-3808486D02*
G01*
X3658862Y-3808486D01*
X3641336Y-3831600D01*
X3649972Y-3831600D01*
X3655814Y-3834394D01*
X3658862Y-3837188D01*
X3661656Y-3845824D01*
X3661656Y-3851666D01*
X3658862Y-3860302D01*
X3653020Y-3866144D01*
X3644384Y-3868938D01*
X3635748Y-3868938D01*
X3627112Y-3866144D01*
X3624064Y-3863350D01*
X3621270Y-3857508D01*
X3715250Y-3808486D02*
G01*
X3686548Y-3808486D01*
X3683500Y-3834394D01*
X3686548Y-3831600D01*
X3695184Y-3828552D01*
X3703820Y-3828552D01*
X3712456Y-3831600D01*
X3718298Y-3837188D01*
X3721092Y-3845824D01*
X3721092Y-3851666D01*
X3718298Y-3860302D01*
X3712456Y-3866144D01*
X3703820Y-3868938D01*
X3695184Y-3868938D01*
X3686548Y-3866144D01*
X3683500Y-3863350D01*
X3680706Y-3857508D01*
X3780528Y-3808486D02*
G01*
X3751572Y-3868938D01*
X3740142Y-3808486D02*
G01*
X3780528Y-3808486D01*
X3822692Y-3808486D02*
G01*
X3799578Y-3868938D01*
X3822692Y-3808486D02*
G01*
X3845806Y-3868938D01*
X3808214Y-3848872D02*
G01*
X3837170Y-3848872D01*
X3505192Y-3973586D02*
G01*
X3505192Y-4034038D01*
X3527036Y-3987810D02*
G01*
X3527036Y-3985016D01*
X3530084Y-3979174D01*
X3532878Y-3976380D01*
X3538720Y-3973586D01*
X3550150Y-3973586D01*
X3555992Y-3976380D01*
X3558786Y-3979174D01*
X3561834Y-3985016D01*
X3561834Y-3990858D01*
X3558786Y-3996700D01*
X3553198Y-4005336D01*
X3524242Y-4034038D01*
X3564628Y-4034038D01*
X3624064Y-3982222D02*
G01*
X3618222Y-3976380D01*
X3609586Y-3973586D01*
X3598156Y-3973586D01*
X3589520Y-3976380D01*
X3583678Y-3982222D01*
X3583678Y-3987810D01*
X3586472Y-3993652D01*
X3589520Y-3996700D01*
X3595362Y-3999494D01*
X3612634Y-4005336D01*
X3618222Y-4008130D01*
X3621270Y-4010924D01*
X3624064Y-4016766D01*
X3624064Y-4025402D01*
X3618222Y-4031244D01*
X3609586Y-4034038D01*
X3598156Y-4034038D01*
X3589520Y-4031244D01*
X3583678Y-4025402D01*
X3710678Y-3973586D02*
G01*
X3687564Y-4034038D01*
X3710678Y-3973586D02*
G01*
X3733792Y-4034038D01*
X3696200Y-4013972D02*
G01*
X3725156Y-4013972D01*
X3752842Y-3993652D02*
G01*
X3752842Y-4034038D01*
X3752842Y-4005336D02*
G01*
X3761478Y-3996700D01*
X3767320Y-3993652D01*
X3775956Y-3993652D01*
X3781798Y-3996700D01*
X3784592Y-4005336D01*
X3784592Y-4034038D01*
X3784592Y-4005336D02*
G01*
X3793228Y-3996700D01*
X3799070Y-3993652D01*
X3807706Y-3993652D01*
X3813548Y-3996700D01*
X3816342Y-4005336D01*
X3816342Y-4034038D01*
X3835392Y-3993652D02*
G01*
X3835392Y-4054358D01*
X3835392Y-4002288D02*
G01*
X3841234Y-3996700D01*
X3846822Y-3993652D01*
X3855712Y-3993652D01*
X3861300Y-3996700D01*
X3867142Y-4002288D01*
X3869936Y-4010924D01*
X3869936Y-4016766D01*
X3867142Y-4025402D01*
X3861300Y-4031244D01*
X3855712Y-4034038D01*
X3846822Y-4034038D01*
X3841234Y-4031244D01*
X3835392Y-4025402D01*
D11*
X4640574Y-4471934D02*
G01*
X4637780Y-4466346D01*
X4631938Y-4460504D01*
X4626350Y-4457710D01*
X4614666Y-4457710D01*
X4608824Y-4460504D01*
X4603236Y-4466346D01*
X4600188Y-4471934D01*
X4597394Y-4480824D01*
X4597394Y-4495048D01*
X4600188Y-4503684D01*
X4603236Y-4509526D01*
X4608824Y-4515368D01*
X4614666Y-4518162D01*
X4626350Y-4518162D01*
X4631938Y-4515368D01*
X4637780Y-4509526D01*
X4640574Y-4503684D01*
X4640574Y-4495048D01*
X4626350Y-4495048D02*
G01*
X4640574Y-4495048D01*
X4659624Y-4457710D02*
G01*
X4659624Y-4518162D01*
X4659624Y-4457710D02*
G01*
X4700264Y-4518162D01*
X4700264Y-4457710D02*
G01*
X4700264Y-4518162D01*
X4719314Y-4457710D02*
G01*
X4719314Y-4518162D01*
X4719314Y-4457710D02*
G01*
X4739380Y-4457710D01*
X4748016Y-4460504D01*
X4753858Y-4466346D01*
X4756652Y-4471934D01*
X4759700Y-4480824D01*
X4759700Y-4495048D01*
X4756652Y-4503684D01*
X4753858Y-4509526D01*
X4748016Y-4515368D01*
X4739380Y-4518162D01*
X4719314Y-4518162D01*
X4876797Y-4113283D02*
G01*
X4899911Y-4173735D01*
X4923025Y-4113283D02*
G01*
X4899911Y-4173735D01*
X4942075Y-4113283D02*
G01*
X4944869Y-4116077D01*
X4947917Y-4113283D01*
X4944869Y-4110235D01*
X4942075Y-4113283D01*
X4944869Y-4133349D02*
G01*
X4944869Y-4173735D01*
X4966967Y-4133349D02*
G01*
X4966967Y-4173735D01*
X4966967Y-4145033D02*
G01*
X4975603Y-4136397D01*
X4981191Y-4133349D01*
X4989827Y-4133349D01*
X4995669Y-4136397D01*
X4998717Y-4145033D01*
X4998717Y-4173735D01*
X4421886Y-4123446D02*
G01*
X4416043Y-4117604D01*
X4407408Y-4114810D01*
X4395977Y-4114810D01*
X4387341Y-4117604D01*
X4381500Y-4123446D01*
X4381500Y-4129034D01*
X4384293Y-4134876D01*
X4387341Y-4137924D01*
X4392929Y-4140718D01*
X4410456Y-4146560D01*
X4416043Y-4149354D01*
X4419091Y-4152148D01*
X4421886Y-4157990D01*
X4421886Y-4166626D01*
X4416043Y-4172468D01*
X4407408Y-4175262D01*
X4395977Y-4175262D01*
X4387341Y-4172468D01*
X4381500Y-4166626D01*
X4440936Y-4114810D02*
G01*
X4440936Y-4175262D01*
X4440936Y-4114810D02*
G01*
X4461256Y-4114810D01*
X4469891Y-4117604D01*
X4475479Y-4123446D01*
X4478527Y-4129034D01*
X4481322Y-4137924D01*
X4481322Y-4152148D01*
X4478527Y-4160784D01*
X4475479Y-4166626D01*
X4469891Y-4172468D01*
X4461256Y-4175262D01*
X4440936Y-4175262D01*
X4107182Y-4471934D02*
G01*
X4104388Y-4466346D01*
X4098546Y-4460504D01*
X4092958Y-4457710D01*
X4081274Y-4457710D01*
X4075432Y-4460504D01*
X4069844Y-4466346D01*
X4066796Y-4471934D01*
X4064002Y-4480824D01*
X4064002Y-4495048D01*
X4066796Y-4503684D01*
X4069844Y-4509526D01*
X4075432Y-4515368D01*
X4081274Y-4518162D01*
X4092958Y-4518162D01*
X4098546Y-4515368D01*
X4104388Y-4509526D01*
X4107182Y-4503684D01*
X4107182Y-4495048D01*
X4092958Y-4495048D02*
G01*
X4107182Y-4495048D01*
X4149346Y-4457710D02*
G01*
X4126232Y-4518162D01*
X4149346Y-4457710D02*
G01*
X4172460Y-4518162D01*
X4135122Y-4498096D02*
G01*
X4163824Y-4498096D01*
X4191510Y-4457710D02*
G01*
X4191510Y-4518162D01*
X4210560Y-4457710D02*
G01*
X4210560Y-4518162D01*
X4210560Y-4457710D02*
G01*
X4250946Y-4518162D01*
X4250946Y-4457710D02*
G01*
X4250946Y-4518162D01*
X3873494Y-4114810D02*
G01*
X3873494Y-4175262D01*
X3873494Y-4114810D02*
G01*
X3893814Y-4114810D01*
X3902450Y-4117604D01*
X3908038Y-4123446D01*
X3911086Y-4129034D01*
X3913880Y-4137924D01*
X3913880Y-4152148D01*
X3911086Y-4160784D01*
X3908038Y-4166626D01*
X3902450Y-4172468D01*
X3893814Y-4175262D01*
X3873494Y-4175262D01*
X3932930Y-4114810D02*
G01*
X3932930Y-4175262D01*
X3951980Y-4114810D02*
G01*
X3951980Y-4175262D01*
X3951980Y-4114810D02*
G01*
X3992366Y-4175262D01*
X3992366Y-4114810D02*
G01*
X3992366Y-4175262D01*
X3556002Y-4457710D02*
G01*
X3556002Y-4518162D01*
X3556002Y-4457710D02*
G01*
X3581910Y-4457710D01*
X3590546Y-4460504D01*
X3593594Y-4463298D01*
X3596388Y-4469140D01*
X3596388Y-4474982D01*
X3593594Y-4480824D01*
X3590546Y-4483618D01*
X3581910Y-4486412D01*
X3556002Y-4486412D02*
G01*
X3581910Y-4486412D01*
X3590546Y-4489460D01*
X3593594Y-4492254D01*
X3596388Y-4498096D01*
X3596388Y-4506732D01*
X3593594Y-4512574D01*
X3590546Y-4515368D01*
X3581910Y-4518162D01*
X3556002Y-4518162D01*
X3658872Y-4471934D02*
G01*
X3655824Y-4466346D01*
X3649982Y-4460504D01*
X3644394Y-4457710D01*
X3632710Y-4457710D01*
X3627122Y-4460504D01*
X3621280Y-4466346D01*
X3618232Y-4471934D01*
X3615438Y-4480824D01*
X3615438Y-4495048D01*
X3618232Y-4503684D01*
X3621280Y-4509526D01*
X3627122Y-4515368D01*
X3632710Y-4518162D01*
X3644394Y-4518162D01*
X3649982Y-4515368D01*
X3655824Y-4509526D01*
X3658872Y-4503684D01*
X3677922Y-4457710D02*
G01*
X3677922Y-4518162D01*
X3677922Y-4518162D02*
G01*
X3712466Y-4518162D01*
X3731516Y-4457710D02*
G01*
X3731516Y-4518162D01*
X3771902Y-4457710D02*
G01*
X3731516Y-4498096D01*
X3745994Y-4483618D02*
G01*
X3771902Y-4518162D01*
X3352797Y-4113283D02*
G01*
X3352797Y-4173735D01*
X3352797Y-4173735D02*
G01*
X3387341Y-4173735D01*
X3406391Y-4113283D02*
G01*
X3406391Y-4173735D01*
X3406391Y-4113283D02*
G01*
X3432553Y-4113283D01*
X3441189Y-4116077D01*
X3443983Y-4118871D01*
X3446777Y-4124713D01*
X3446777Y-4130555D01*
X3443983Y-4136397D01*
X3441189Y-4139191D01*
X3432553Y-4141985D01*
X3406391Y-4141985D01*
X3426711Y-4141985D02*
G01*
X3446777Y-4173735D01*
X3509261Y-4127507D02*
G01*
X3506467Y-4121919D01*
X3500625Y-4116077D01*
X3494783Y-4113283D01*
X3483353Y-4113283D01*
X3477511Y-4116077D01*
X3471669Y-4121919D01*
X3468875Y-4127507D01*
X3465827Y-4136397D01*
X3465827Y-4150621D01*
X3468875Y-4159257D01*
X3471669Y-4165099D01*
X3477511Y-4170941D01*
X3483353Y-4173735D01*
X3494783Y-4173735D01*
X3500625Y-4170941D01*
X3506467Y-4165099D01*
X3509261Y-4159257D01*
X-523493Y4127500D02*
G01*
X-527050Y4134865D01*
X-537972Y4145787D01*
X-461518Y4145787D01*
X-519684Y4173220D02*
G01*
X-523493Y4173220D01*
X-530606Y4177029D01*
X-534415Y4180586D01*
X-537972Y4187952D01*
X-537972Y4202429D01*
X-534415Y4209795D01*
X-530606Y4213352D01*
X-523493Y4216907D01*
X-516127Y4216907D01*
X-508761Y4213352D01*
X-497840Y4205986D01*
X-461518Y4169663D01*
X-461518Y4220463D01*
X-537972Y4244594D02*
G01*
X-461518Y4273804D01*
X-537972Y4302760D02*
G01*
X-461518Y4273804D01*
X-436118Y4326889D02*
G01*
X-436118Y4392168D01*
X-537972Y4438142D02*
G01*
X-534415Y4430776D01*
X-527050Y4423410D01*
X-519684Y4419854D01*
X-508761Y4416297D01*
X-490727Y4416297D01*
X-479806Y4419854D01*
X-472440Y4423410D01*
X-465074Y4430776D01*
X-461518Y4438142D01*
X-461518Y4452620D01*
X-465074Y4459986D01*
X-472440Y4467097D01*
X-479806Y4470654D01*
X-490727Y4474463D01*
X-508761Y4474463D01*
X-519684Y4470654D01*
X-527050Y4467097D01*
X-534415Y4459986D01*
X-537972Y4452620D01*
X-537972Y4438142D01*
X-537972Y4498339D02*
G01*
X-483361Y4498339D01*
X-472440Y4502150D01*
X-465074Y4509262D01*
X-461518Y4520184D01*
X-461518Y4527550D01*
X-465074Y4538471D01*
X-472440Y4545584D01*
X-483361Y4549394D01*
X-537972Y4549394D01*
X-537972Y4598670D02*
G01*
X-461518Y4598670D01*
X-537972Y4573270D02*
G01*
X-537972Y4624323D01*
X-2260600Y3080512D02*
G01*
X-2260600Y3013710D01*
X-2260600Y3080512D02*
G01*
X-2219197Y3080512D01*
X-2260600Y3048762D02*
G01*
X-2235200Y3048762D01*
X-2172715Y3080512D02*
G01*
X-2198115Y3013710D01*
X-2172715Y3080512D02*
G01*
X-2147315Y3013710D01*
X-2188718Y3036062D02*
G01*
X-2156968Y3036062D01*
X-2126234Y3080512D02*
G01*
X-2126234Y3013710D01*
X-2126234Y3080512D02*
G01*
X-2081784Y3013710D01*
X-2081784Y3080512D02*
G01*
X-2081784Y3013710D01*
X-2060702Y2991357D02*
G01*
X-2003552Y2991357D01*
X-1982470Y3067812D02*
G01*
X-1976120Y3071113D01*
X-1966721Y3080512D01*
X-1966721Y3013710D01*
X3937761Y1143000D02*
G01*
X4033265Y1143000D01*
X3937761Y1143000D02*
G01*
X3937761Y1202181D01*
X3983227Y1143000D02*
G01*
X3983227Y1179321D01*
X3937761Y1268476D02*
G01*
X4033265Y1232154D01*
X3937761Y1268476D02*
G01*
X4033265Y1304797D01*
X4001261Y1245615D02*
G01*
X4001261Y1291081D01*
X3937761Y1334770D02*
G01*
X4033265Y1334770D01*
X3937761Y1334770D02*
G01*
X4033265Y1398523D01*
X3937761Y1398523D02*
G01*
X4033265Y1398523D01*
X4065015Y1428495D02*
G01*
X4065015Y1510284D01*
X3960368Y1544828D02*
G01*
X3955795Y1544828D01*
X3946906Y1549400D01*
X3942334Y1553971D01*
X3937761Y1563115D01*
X3937761Y1581150D01*
X3942334Y1590294D01*
X3946906Y1594865D01*
X3955795Y1599437D01*
X3964940Y1599437D01*
X3974084Y1594865D01*
X3987800Y1585721D01*
X4033265Y1540255D01*
X4033265Y1604010D01*
X-2298700Y2115312D02*
G01*
X-2298700Y2048510D01*
X-2298700Y2115312D02*
G01*
X-2257297Y2115312D01*
X-2298700Y2083562D02*
G01*
X-2273300Y2083562D01*
X-2210815Y2115312D02*
G01*
X-2236215Y2048510D01*
X-2210815Y2115312D02*
G01*
X-2185415Y2048510D01*
X-2226818Y2070862D02*
G01*
X-2195068Y2070862D01*
X-2164334Y2115312D02*
G01*
X-2164334Y2048510D01*
X-2164334Y2115312D02*
G01*
X-2119884Y2048510D01*
X-2119884Y2115312D02*
G01*
X-2119884Y2048510D01*
X-2098802Y2026157D02*
G01*
X-2041652Y2026157D01*
X-2014220Y2115312D02*
G01*
X-1979168Y2115312D01*
X-1998218Y2089912D01*
X-1988820Y2089912D01*
X-1982470Y2086610D01*
X-1979168Y2083562D01*
X-1976120Y2073910D01*
X-1976120Y2067560D01*
X-1979168Y2058162D01*
X-1985518Y2051812D01*
X-1995170Y2048510D01*
X-2004821Y2048510D01*
X-2014220Y2051812D01*
X-2017521Y2054860D01*
X-2020570Y2061210D01*
X3899661Y279400D02*
G01*
X3995165Y279400D01*
X3899661Y279400D02*
G01*
X3899661Y338581D01*
X3945127Y279400D02*
G01*
X3945127Y315721D01*
X3899661Y404876D02*
G01*
X3995165Y368554D01*
X3899661Y404876D02*
G01*
X3995165Y441197D01*
X3963161Y382015D02*
G01*
X3963161Y427481D01*
X3899661Y471170D02*
G01*
X3995165Y471170D01*
X3899661Y471170D02*
G01*
X3995165Y534923D01*
X3899661Y534923D02*
G01*
X3995165Y534923D01*
X4026915Y564895D02*
G01*
X4026915Y646684D01*
X3899661Y722121D02*
G01*
X3963161Y676655D01*
X3963161Y744728D01*
X3899661Y722121D02*
G01*
X3995165Y722121D01*
X3731768Y-2235200D02*
G01*
X3817874Y-2235200D01*
X3731768Y-2235200D02*
G01*
X3731768Y-2182113D01*
X3772915Y-2235200D02*
G01*
X3772915Y-2202434D01*
X3752341Y-2093721D02*
G01*
X3744213Y-2097786D01*
X3736086Y-2105913D01*
X3731768Y-2114042D01*
X3731768Y-2130552D01*
X3736086Y-2138679D01*
X3744213Y-2146807D01*
X3752341Y-2150871D01*
X3764534Y-2154936D01*
X3785108Y-2154936D01*
X3797300Y-2150871D01*
X3805427Y-2146807D01*
X3813809Y-2138679D01*
X3817874Y-2130552D01*
X3817874Y-2114042D01*
X3813809Y-2105913D01*
X3805427Y-2097786D01*
X3797300Y-2093721D01*
X3846322Y-2066544D02*
G01*
X3846322Y-1993137D01*
X3752341Y-1904745D02*
G01*
X3744213Y-1908810D01*
X3736086Y-1916937D01*
X3731768Y-1925065D01*
X3731768Y-1941576D01*
X3736086Y-1949704D01*
X3744213Y-1957831D01*
X3752341Y-1961895D01*
X3764534Y-1965960D01*
X3785108Y-1965960D01*
X3797300Y-1961895D01*
X3805427Y-1957831D01*
X3813809Y-1949704D01*
X3817874Y-1941576D01*
X3817874Y-1925065D01*
X3813809Y-1916937D01*
X3805427Y-1908810D01*
X3797300Y-1904745D01*
X3731768Y-1853184D02*
G01*
X3736086Y-1861312D01*
X3744213Y-1869439D01*
X3752341Y-1873504D01*
X3764534Y-1877568D01*
X3785108Y-1877568D01*
X3797300Y-1873504D01*
X3805427Y-1869439D01*
X3813809Y-1861312D01*
X3817874Y-1853184D01*
X3817874Y-1836673D01*
X3813809Y-1828545D01*
X3805427Y-1820418D01*
X3797300Y-1816354D01*
X3785108Y-1812289D01*
X3764534Y-1812289D01*
X3752341Y-1816354D01*
X3744213Y-1820418D01*
X3736086Y-1828545D01*
X3731768Y-1836673D01*
X3731768Y-1853184D01*
X3731768Y-1785112D02*
G01*
X3817874Y-1785112D01*
X3731768Y-1785112D02*
G01*
X3817874Y-1727962D01*
X3731768Y-1727962D02*
G01*
X3817874Y-1727962D01*
X3731768Y-1701037D02*
G01*
X3817874Y-1701037D01*
X3731768Y-1701037D02*
G01*
X3817874Y-1643634D01*
X3731768Y-1643634D02*
G01*
X3817874Y-1643634D01*
X-1454150Y4191000D02*
G01*
X-1461515Y4183887D01*
X-1465071Y4172965D01*
X-1465071Y4158487D01*
X-1461515Y4147565D01*
X-1454150Y4140200D01*
X-1446784Y4140200D01*
X-1439671Y4143755D01*
X-1435862Y4147565D01*
X-1432305Y4154678D01*
X-1424939Y4176521D01*
X-1421384Y4183887D01*
X-1417828Y4187444D01*
X-1410462Y4191000D01*
X-1399539Y4191000D01*
X-1392173Y4183887D01*
X-1388618Y4172965D01*
X-1388618Y4158487D01*
X-1392173Y4147565D01*
X-1399539Y4140200D01*
X-1465071Y4215129D02*
G01*
X-1388618Y4215129D01*
X-1465071Y4215129D02*
G01*
X-1465071Y4247895D01*
X-1461515Y4258818D01*
X-1457705Y4262373D01*
X-1450594Y4265929D01*
X-1439671Y4265929D01*
X-1432305Y4262373D01*
X-1428750Y4258818D01*
X-1424939Y4247895D01*
X-1424939Y4215129D01*
X-1465071Y4290060D02*
G01*
X-1388618Y4290060D01*
X-1465071Y4340860D02*
G01*
X-1414018Y4290060D01*
X-1432305Y4308094D02*
G01*
X-1388618Y4340860D01*
X-1363218Y4364989D02*
G01*
X-1363218Y4430268D01*
X-1465071Y4476242D02*
G01*
X-1461515Y4468876D01*
X-1454150Y4461763D01*
X-1446784Y4457954D01*
X-1435862Y4454397D01*
X-1417828Y4454397D01*
X-1406905Y4457954D01*
X-1399539Y4461763D01*
X-1392173Y4468876D01*
X-1388618Y4476242D01*
X-1388618Y4490720D01*
X-1392173Y4498086D01*
X-1399539Y4505197D01*
X-1406905Y4509007D01*
X-1417828Y4512563D01*
X-1435862Y4512563D01*
X-1446784Y4509007D01*
X-1454150Y4505197D01*
X-1461515Y4498086D01*
X-1465071Y4490720D01*
X-1465071Y4476242D01*
X-1465071Y4536439D02*
G01*
X-1410462Y4536439D01*
X-1399539Y4540250D01*
X-1392173Y4547362D01*
X-1388618Y4558284D01*
X-1388618Y4565650D01*
X-1392173Y4576571D01*
X-1399539Y4583937D01*
X-1410462Y4587494D01*
X-1465071Y4587494D01*
X-1465071Y4637023D02*
G01*
X-1388618Y4637023D01*
X-1465071Y4611370D02*
G01*
X-1465071Y4662423D01*
X-2371852Y4111244D02*
G01*
X-2314702Y4089400D01*
X-2371852Y4111244D02*
G01*
X-2314702Y4133087D01*
X-2333752Y4097528D02*
G01*
X-2333752Y4124960D01*
X-2371852Y4151121D02*
G01*
X-2314702Y4151121D01*
X-2371852Y4151121D02*
G01*
X-2371852Y4175505D01*
X-2369312Y4183887D01*
X-2366518Y4186428D01*
X-2360929Y4189221D01*
X-2355595Y4189221D01*
X-2350007Y4186428D01*
X-2347468Y4183887D01*
X-2344673Y4175505D01*
X-2344673Y4151121D01*
X-2344673Y4170171D02*
G01*
X-2314702Y4189221D01*
X-2371852Y4207255D02*
G01*
X-2314702Y4207255D01*
X-2371852Y4207255D02*
G01*
X-2371852Y4226305D01*
X-2369312Y4234434D01*
X-2363723Y4240021D01*
X-2358389Y4242562D01*
X-2350007Y4245355D01*
X-2336545Y4245355D01*
X-2328418Y4242562D01*
X-2322829Y4240021D01*
X-2317495Y4234434D01*
X-2314702Y4226305D01*
X-2314702Y4207255D01*
X-2371852Y4263389D02*
G01*
X-2330957Y4263389D01*
X-2322829Y4266184D01*
X-2317495Y4271518D01*
X-2314702Y4279645D01*
X-2314702Y4285234D01*
X-2317495Y4293362D01*
X-2322829Y4298950D01*
X-2330957Y4301489D01*
X-2371852Y4301489D01*
X-2358389Y4360418D02*
G01*
X-2363723Y4357878D01*
X-2369312Y4352289D01*
X-2371852Y4346955D01*
X-2371852Y4336034D01*
X-2369312Y4330445D01*
X-2363723Y4325112D01*
X-2358389Y4322318D01*
X-2350007Y4319523D01*
X-2336545Y4319523D01*
X-2328418Y4322318D01*
X-2322829Y4325112D01*
X-2317495Y4330445D01*
X-2314702Y4336034D01*
X-2314702Y4346955D01*
X-2317495Y4352289D01*
X-2322829Y4357878D01*
X-2328418Y4360418D01*
X-2371852Y4400295D02*
G01*
X-2314702Y4378452D01*
X-2371852Y4400295D02*
G01*
X-2314702Y4422139D01*
X-2333752Y4386579D02*
G01*
X-2333752Y4414012D01*
X-2371852Y4440173D02*
G01*
X-2314702Y4440173D01*
X-2371852Y4440173D02*
G01*
X-2314702Y4462018D01*
X-2371852Y4483862D02*
G01*
X-2314702Y4462018D01*
X-2371852Y4483862D02*
G01*
X-2314702Y4483862D01*
X-2295652Y4501642D02*
G01*
X-2295652Y4550918D01*
X-2371852Y4601463D02*
G01*
X-2371852Y4574286D01*
X-2347468Y4571492D01*
X-2350007Y4574286D01*
X-2352802Y4582413D01*
X-2352802Y4590795D01*
X-2350007Y4598923D01*
X-2344673Y4604257D01*
X-2336545Y4607052D01*
X-2330957Y4607052D01*
X-2322829Y4604257D01*
X-2317495Y4598923D01*
X-2314702Y4590795D01*
X-2314702Y4582413D01*
X-2317495Y4574286D01*
X-2320036Y4571492D01*
X-2325623Y4568952D01*
X-2371852Y4625086D02*
G01*
X-2314702Y4646929D01*
X-2371852Y4668773D02*
G01*
X-2314702Y4646929D01*
X4814061Y-939800D02*
G01*
X4909565Y-939800D01*
X4814061Y-939800D02*
G01*
X4814061Y-880618D01*
X4859527Y-939800D02*
G01*
X4859527Y-903478D01*
X4814061Y-814323D02*
G01*
X4909565Y-850645D01*
X4814061Y-814323D02*
G01*
X4909565Y-778002D01*
X4877561Y-837184D02*
G01*
X4877561Y-791718D01*
X4814061Y-748029D02*
G01*
X4909565Y-748029D01*
X4814061Y-748029D02*
G01*
X4909565Y-684276D01*
X4814061Y-684276D02*
G01*
X4909565Y-684276D01*
X4941315Y-654304D02*
G01*
X4941315Y-572515D01*
X4827524Y-478789D02*
G01*
X4818634Y-487934D01*
X4814061Y-501650D01*
X4814061Y-519684D01*
X4818634Y-533400D01*
X4827524Y-542544D01*
X4836668Y-542544D01*
X4845811Y-537971D01*
X4850384Y-533400D01*
X4854956Y-524255D01*
X4864100Y-497078D01*
X4868418Y-487934D01*
X4872990Y-483362D01*
X4882134Y-478789D01*
X4895850Y-478789D01*
X4904993Y-487934D01*
X4909565Y-501650D01*
X4909565Y-519684D01*
X4904993Y-533400D01*
X4895850Y-542544D01*
X4814061Y-448818D02*
G01*
X4909565Y-426212D01*
X4814061Y-403352D02*
G01*
X4909565Y-426212D01*
X4814061Y-403352D02*
G01*
X4909565Y-380745D01*
X4814061Y-357886D02*
G01*
X4909565Y-380745D01*
X-267970Y3531615D02*
G01*
X-319786Y3531615D01*
X-325120Y3484879D01*
X-319786Y3489960D01*
X-304291Y3495294D01*
X-288543Y3495294D01*
X-273050Y3489960D01*
X-262636Y3479800D01*
X-257556Y3464052D01*
X-257556Y3453637D01*
X-262636Y3438144D01*
X-273050Y3427729D01*
X-288543Y3422650D01*
X-304291Y3422650D01*
X-319786Y3427729D01*
X-325120Y3432810D01*
X-330200Y3443223D01*
X-223265Y3531615D02*
G01*
X-181609Y3422650D01*
X-139954Y3531615D02*
G01*
X-181609Y3422650D01*
X-105663Y3386073D02*
G01*
X-12191Y3386073D01*
X22097Y3531615D02*
G01*
X22097Y3422650D01*
X22097Y3531615D02*
G01*
X68834Y3531615D01*
X84327Y3526536D01*
X89661Y3521202D01*
X94741Y3510787D01*
X94741Y3500373D01*
X89661Y3489960D01*
X84327Y3484879D01*
X68834Y3479800D01*
X22097Y3479800D02*
G01*
X68834Y3479800D01*
X84327Y3474465D01*
X89661Y3469386D01*
X94741Y3458971D01*
X94741Y3443223D01*
X89661Y3432810D01*
X84327Y3427729D01*
X68834Y3422650D01*
X22097Y3422650D01*
X129031Y3531615D02*
G01*
X129031Y3453637D01*
X134365Y3438144D01*
X144779Y3427729D01*
X160274Y3422650D01*
X170688Y3422650D01*
X186181Y3427729D01*
X196595Y3438144D01*
X201929Y3453637D01*
X201929Y3531615D01*
X313943Y3505707D02*
G01*
X308863Y3516121D01*
X298450Y3526536D01*
X288036Y3531615D01*
X267208Y3531615D01*
X256793Y3526536D01*
X246379Y3516121D01*
X241300Y3505707D01*
X236220Y3489960D01*
X236220Y3464052D01*
X241300Y3448557D01*
X246379Y3438144D01*
X256793Y3427729D01*
X267208Y3422650D01*
X288036Y3422650D01*
X298450Y3427729D01*
X308863Y3438144D01*
X313943Y3448557D01*
X348234Y3531615D02*
G01*
X348234Y3422650D01*
X421131Y3531615D02*
G01*
X348234Y3458971D01*
X374395Y3484879D02*
G01*
X421131Y3422650D01*
D13*
X2655100Y2127415D02*
G01*
X2655100Y2270671D01*
X2610142Y2127415D02*
G01*
X2610142Y2270671D01*
X2610142Y2127415D02*
G01*
X2514638Y2270671D01*
X2514638Y2127415D02*
G01*
X2514638Y2270671D01*
X2408212Y2147989D02*
G01*
X2408212Y2270671D01*
X2469680Y2209203D02*
G01*
X2346998Y2209203D01*
X2655100Y3477412D02*
G01*
X2655100Y3620668D01*
X2610142Y3477412D02*
G01*
X2610142Y3620668D01*
X2610142Y3477412D02*
G01*
X2514638Y3620668D01*
X2514638Y3477412D02*
G01*
X2514638Y3620668D01*
X2469680Y3559200D02*
G01*
X2346998Y3559200D01*
X-1135786Y2127415D02*
G01*
X-1122070Y2134273D01*
X-1108608Y2147989D01*
X-1101750Y2161451D01*
X-1094892Y2182025D01*
X-1094892Y2216061D01*
X-1101750Y2236635D01*
X-1108608Y2250097D01*
X-1122070Y2263813D01*
X-1135786Y2270671D01*
X-1162964Y2270671D01*
X-1176680Y2263813D01*
X-1190396Y2250097D01*
X-1197254Y2236635D01*
X-1203858Y2216061D01*
X-1203858Y2182025D01*
X-1197254Y2161451D01*
X-1190396Y2147989D01*
X-1176680Y2134273D01*
X-1162964Y2127415D01*
X-1135786Y2127415D01*
X-1249070Y2127415D02*
G01*
X-1249070Y2229777D01*
X-1255674Y2250097D01*
X-1269390Y2263813D01*
X-1289964Y2270671D01*
X-1303426Y2270671D01*
X-1324000Y2263813D01*
X-1337716Y2250097D01*
X-1344320Y2229777D01*
X-1344320Y2127415D01*
X-1437284Y2127415D02*
G01*
X-1437284Y2270671D01*
X-1389532Y2127415D02*
G01*
X-1484782Y2127415D01*
X-1591208Y2147989D02*
G01*
X-1591208Y2270671D01*
X-1529994Y2209203D02*
G01*
X-1652676Y2209203D01*
X-1135786Y3477412D02*
G01*
X-1122070Y3484270D01*
X-1108608Y3497986D01*
X-1101750Y3511448D01*
X-1094892Y3532022D01*
X-1094892Y3566058D01*
X-1101750Y3586632D01*
X-1108608Y3600094D01*
X-1122070Y3613810D01*
X-1135786Y3620668D01*
X-1162964Y3620668D01*
X-1176680Y3613810D01*
X-1190396Y3600094D01*
X-1197254Y3586632D01*
X-1203858Y3566058D01*
X-1203858Y3532022D01*
X-1197254Y3511448D01*
X-1190396Y3497986D01*
X-1176680Y3484270D01*
X-1162964Y3477412D01*
X-1135786Y3477412D01*
X-1249070Y3477412D02*
G01*
X-1249070Y3579774D01*
X-1255674Y3600094D01*
X-1269390Y3613810D01*
X-1289964Y3620668D01*
X-1303426Y3620668D01*
X-1324000Y3613810D01*
X-1337716Y3600094D01*
X-1344320Y3579774D01*
X-1344320Y3477412D01*
X-1437284Y3477412D02*
G01*
X-1437284Y3620668D01*
X-1389532Y3477412D02*
G01*
X-1484782Y3477412D01*
X-1529994Y3559200D02*
G01*
X-1652676Y3559200D01*
X1612900Y3036315D02*
G01*
X1612900Y3179571D01*
X1612900Y3179571D02*
G01*
X1531111Y3179571D01*
X1486154Y3036315D02*
G01*
X1486154Y3179571D01*
X1486154Y3036315D02*
G01*
X1431543Y3179571D01*
X1376934Y3036315D02*
G01*
X1431543Y3179571D01*
X1376934Y3036315D02*
G01*
X1376934Y3179571D01*
X1325118Y3070352D02*
G01*
X1325118Y3063494D01*
X1318259Y3050031D01*
X1311656Y3043173D01*
X1297940Y3036315D01*
X1270508Y3036315D01*
X1257045Y3043173D01*
X1250188Y3050031D01*
X1243329Y3063494D01*
X1243329Y3077210D01*
X1250188Y3090926D01*
X1263904Y3111245D01*
X1331975Y3179571D01*
X1236472Y3179571D01*
X1109725Y3036315D02*
G01*
X1177797Y3036315D01*
X1184656Y3097784D01*
X1177797Y3090926D01*
X1157477Y3084068D01*
X1136904Y3084068D01*
X1116584Y3090926D01*
X1102868Y3104642D01*
X1096009Y3124962D01*
X1096009Y3138678D01*
X1102868Y3158997D01*
X1116584Y3172713D01*
X1136904Y3179571D01*
X1157477Y3179571D01*
X1177797Y3172713D01*
X1184656Y3165855D01*
X1191513Y3152139D01*
X962406Y3084068D02*
G01*
X969263Y3104642D01*
X982979Y3118104D01*
X1003300Y3124962D01*
X1010158Y3124962D01*
X1030731Y3118104D01*
X1044193Y3104642D01*
X1051052Y3084068D01*
X1051052Y3077210D01*
X1044193Y3056889D01*
X1030731Y3043173D01*
X1010158Y3036315D01*
X1003300Y3036315D01*
X982979Y3043173D01*
X969263Y3056889D01*
X962406Y3084068D01*
X962406Y3118104D01*
X969263Y3152139D01*
X982979Y3172713D01*
X1003300Y3179571D01*
X1017015Y3179571D01*
X1037336Y3172713D01*
X1044193Y3158997D01*
X835659Y3056889D02*
G01*
X842518Y3043173D01*
X862838Y3036315D01*
X876554Y3036315D01*
X896874Y3043173D01*
X910590Y3063494D01*
X917447Y3097784D01*
X917447Y3131820D01*
X910590Y3158997D01*
X896874Y3172713D01*
X876554Y3179571D01*
X869695Y3179571D01*
X849375Y3172713D01*
X835659Y3158997D01*
X828802Y3138678D01*
X828802Y3131820D01*
X835659Y3111245D01*
X849375Y3097784D01*
X869695Y3090926D01*
X876554Y3090926D01*
X896874Y3097784D01*
X910590Y3111245D01*
X917447Y3131820D01*
X1447800Y3264915D02*
G01*
X1447800Y3408171D01*
X1447800Y3264915D02*
G01*
X1386331Y3264915D01*
X1366011Y3271773D01*
X1359154Y3278631D01*
X1352295Y3292094D01*
X1352295Y3305810D01*
X1359154Y3319526D01*
X1366011Y3326384D01*
X1386331Y3333242D01*
X1447800Y3333242D02*
G01*
X1386331Y3333242D01*
X1366011Y3339845D01*
X1359154Y3346704D01*
X1352295Y3360420D01*
X1352295Y3380739D01*
X1359154Y3394455D01*
X1366011Y3401313D01*
X1386331Y3408171D01*
X1447800Y3408171D01*
X1307338Y3264915D02*
G01*
X1307338Y3367278D01*
X1300479Y3387597D01*
X1287018Y3401313D01*
X1266443Y3408171D01*
X1252727Y3408171D01*
X1232408Y3401313D01*
X1218691Y3387597D01*
X1211834Y3367278D01*
X1211834Y3264915D01*
X1064513Y3298952D02*
G01*
X1071372Y3285489D01*
X1085088Y3271773D01*
X1098804Y3264915D01*
X1125981Y3264915D01*
X1139697Y3271773D01*
X1153159Y3285489D01*
X1160018Y3298952D01*
X1166875Y3319526D01*
X1166875Y3353562D01*
X1160018Y3374136D01*
X1153159Y3387597D01*
X1139697Y3401313D01*
X1125981Y3408171D01*
X1098804Y3408171D01*
X1085088Y3401313D01*
X1071372Y3387597D01*
X1064513Y3374136D01*
X1019556Y3264915D02*
G01*
X1019556Y3408171D01*
X924052Y3264915D02*
G01*
X1019556Y3360420D01*
X985520Y3326384D02*
G01*
X924052Y3408171D01*
G36*
X3324402Y-3211677D02*
G01*
X3324402Y-3212033D01*
X3354476Y-3212033D01*
X3354476Y-3211677D01*
G37*
G36*
X3338474Y-3365195D02*
G01*
X3338474Y-3365550D01*
X3359099Y-3365550D01*
X3359099Y-3365195D01*
G37*
G36*
X3338880Y-3365550D02*
G01*
X3338880Y-3365957D01*
X3357930Y-3365957D01*
X3357930Y-3365550D01*
G37*
G36*
X3339236Y-3365957D02*
G01*
X3339236Y-3366363D01*
X3356762Y-3366363D01*
X3356762Y-3365957D01*
G37*
G36*
X3339642Y-3366363D02*
G01*
X3339642Y-3366719D01*
X3355644Y-3366719D01*
X3355644Y-3366363D01*
G37*
G36*
X3340049Y-3366719D02*
G01*
X3340049Y-3367125D01*
X3354476Y-3367125D01*
X3354476Y-3366719D01*
G37*
G36*
X3340404Y-3367125D02*
G01*
X3340404Y-3367481D01*
X3353358Y-3367481D01*
X3353358Y-3367125D01*
G37*
G36*
X3341166Y-3367481D02*
G01*
X3341166Y-3367887D01*
X3352241Y-3367887D01*
X3352241Y-3367481D01*
G37*
G36*
X3341522Y-3367887D02*
G01*
X3341522Y-3368243D01*
X3351072Y-3368243D01*
X3351072Y-3367887D01*
G37*
G36*
X3342284Y-3368243D02*
G01*
X3342284Y-3368649D01*
X3349548Y-3368649D01*
X3349548Y-3368243D01*
G37*
G36*
X3343452Y-3368649D02*
G01*
X3343452Y-3369005D01*
X3348024Y-3369005D01*
X3348024Y-3368649D01*
G37*
D14*
X1779015Y4669789D02*
G01*
X1598929Y4669789D01*
X1598929Y4594605D01*
X1779015Y4594605D01*
X1779015Y4669789D01*
X1779015Y4074668D01*
X518922Y4074668D01*
X518922Y4669789D01*
X1779015Y4669789D01*
X1449070Y4669789D02*
G01*
X1449070Y4594605D01*
X849122Y4594605D01*
X849122Y4669789D01*
X1449070Y4669789D01*
X699008Y4669789D02*
G01*
X699008Y4594605D01*
X518922Y4594605D01*
X518922Y4669789D01*
X699008Y4669789D01*
X1779015Y4444745D02*
G01*
X1704086Y4444745D01*
X1704086Y4149597D01*
X1149095Y4149597D01*
X594106Y4149597D01*
X594106Y4444745D01*
X518922Y4444745D01*
X5031099Y1918995D02*
G01*
X2831104Y1918995D01*
X2831104Y3669004D01*
X5031099Y3669004D01*
X5031099Y1918995D01*
D10*
X3098805Y1054102D02*
G01*
X2590805Y1054102D01*
X2590805Y-4025897D01*
X3098805Y-4025897D01*
X3098805Y1054102D01*
X4505601Y-3375314D02*
G01*
X4505601Y-2815323D01*
X4505601Y-2675313D01*
X3805600Y-2675313D01*
X3805600Y-2815323D01*
X3805600Y-3375314D01*
X4505601Y-3375314D01*
X4505601Y-2815323D02*
G01*
X3805600Y-2815323D01*
D15*
X4662472Y-3238510D02*
G01*
X4583097Y-3238510D01*
X4622797Y-3198835D02*
G01*
X4622797Y-3278184D01*
X3656022Y-3238510D02*
G01*
X3735397Y-3238510D01*
D14*
X5054597Y-2933710D02*
G01*
X5054597Y-4330710D01*
X3530597Y-2679710D02*
G01*
X4800597Y-2679710D01*
X3276597Y-4330710D02*
G01*
X3276597Y-2933710D01*
X4800597Y-4584710D02*
G01*
X3530597Y-4584710D01*
X331215Y4657089D02*
G01*
X151129Y4657089D01*
X151129Y4581905D01*
X331215Y4581905D01*
X331215Y4657089D01*
X331215Y4061968D01*
X-428752Y4061968D01*
X-428752Y4657089D01*
X331215Y4657089D01*
X1270Y4657089D02*
G01*
X1270Y4581905D01*
X-98806Y4581905D01*
X-98806Y4657089D01*
X1270Y4657089D01*
X-248920Y4657089D02*
G01*
X-248920Y4581905D01*
X-428752Y4581905D01*
X-428752Y4657089D01*
X-248920Y4657089D01*
X331215Y4432045D02*
G01*
X256286Y4432045D01*
X256286Y4136897D01*
X-48768Y4136897D01*
X-353822Y4136897D01*
X-353822Y4432045D01*
X-428752Y4432045D01*
X-2371089Y3887215D02*
G01*
X-2371089Y3707129D01*
X-2295905Y3707129D01*
X-2295905Y3887215D01*
X-2371089Y3887215D01*
X-1775968Y3887215D01*
X-1775968Y3127247D01*
X-2371089Y3127247D01*
X-2371089Y3887215D01*
X-2371089Y3557270D02*
G01*
X-2295905Y3557270D01*
X-2295905Y3457194D01*
X-2371089Y3457194D01*
X-2371089Y3557270D01*
X-2371089Y3307079D02*
G01*
X-2295905Y3307079D01*
X-2295905Y3127247D01*
X-2371089Y3127247D01*
X-2371089Y3307079D01*
X-2146045Y3887215D02*
G01*
X-2146045Y3812286D01*
X-1850897Y3812286D01*
X-1850897Y3507231D01*
X-1850897Y3202178D01*
X-2146045Y3202178D01*
X-2146045Y3127247D01*
X4062984Y1070610D02*
G01*
X4243070Y1070610D01*
X4243070Y1145794D01*
X4062984Y1145794D01*
X4062984Y1070610D01*
X4062984Y1665731D01*
X4822952Y1665731D01*
X4822952Y1070610D01*
X4062984Y1070610D01*
X4392929Y1070610D02*
G01*
X4392929Y1145794D01*
X4493006Y1145794D01*
X4493006Y1070610D01*
X4392929Y1070610D01*
X4643120Y1070610D02*
G01*
X4643120Y1145794D01*
X4822952Y1145794D01*
X4822952Y1070610D01*
X4643120Y1070610D01*
X4062984Y1295654D02*
G01*
X4137913Y1295654D01*
X4137913Y1590802D01*
X4442968Y1590802D01*
X4748022Y1590802D01*
X4748022Y1295654D01*
X4822952Y1295654D01*
X-2371089Y2934715D02*
G01*
X-2371089Y2754629D01*
X-2295905Y2754629D01*
X-2295905Y2934715D01*
X-2371089Y2934715D01*
X-1775968Y2934715D01*
X-1775968Y2174747D01*
X-2371089Y2174747D01*
X-2371089Y2934715D01*
X-2371089Y2604770D02*
G01*
X-2295905Y2604770D01*
X-2295905Y2504694D01*
X-2371089Y2504694D01*
X-2371089Y2604770D01*
X-2371089Y2354579D02*
G01*
X-2295905Y2354579D01*
X-2295905Y2174747D01*
X-2371089Y2174747D01*
X-2371089Y2354579D01*
X-2146045Y2934715D02*
G01*
X-2146045Y2859786D01*
X-1850897Y2859786D01*
X-1850897Y2554731D01*
X-1850897Y2249678D01*
X-2146045Y2249678D01*
X-2146045Y2174747D01*
X4024884Y219710D02*
G01*
X4204970Y219710D01*
X4204970Y294894D01*
X4024884Y294894D01*
X4024884Y219710D01*
X4024884Y814831D01*
X4784852Y814831D01*
X4784852Y219710D01*
X4024884Y219710D01*
X4354829Y219710D02*
G01*
X4354829Y294894D01*
X4454906Y294894D01*
X4454906Y219710D01*
X4354829Y219710D01*
X4605020Y219710D02*
G01*
X4605020Y294894D01*
X4784852Y294894D01*
X4784852Y219710D01*
X4605020Y219710D01*
X4024884Y444754D02*
G01*
X4099813Y444754D01*
X4099813Y739902D01*
X4404868Y739902D01*
X4709922Y739902D01*
X4709922Y444754D01*
X4784852Y444754D01*
X3848100Y-2235200D02*
G01*
X4025900Y-2235200D01*
X4025900Y-2159000D01*
X3848100Y-2159000D01*
X3848100Y-2235200D01*
X3848100Y-1625600D01*
X4864100Y-1625600D01*
X4864100Y-2235200D01*
X3848100Y-2235200D01*
X4178300Y-2235200D02*
G01*
X4178300Y-2159000D01*
X4533900Y-2159000D01*
X4533900Y-2235200D01*
X4178300Y-2235200D01*
X4686300Y-2235200D02*
G01*
X4686300Y-2159000D01*
X4864100Y-2159000D01*
X4864100Y-2235200D01*
X4686300Y-2235200D01*
X3848100Y-2006600D02*
G01*
X3924300Y-2006600D01*
X3924300Y-1701800D01*
X4787900Y-1701800D01*
X4787900Y-2006600D01*
X4864100Y-2006600D01*
X-595884Y4669789D02*
G01*
X-775970Y4669789D01*
X-775970Y4594605D01*
X-595884Y4594605D01*
X-595884Y4669789D01*
X-595884Y4074668D01*
X-1355852Y4074668D01*
X-1355852Y4669789D01*
X-595884Y4669789D01*
X-925829Y4669789D02*
G01*
X-925829Y4594605D01*
X-1025906Y4594605D01*
X-1025906Y4669789D01*
X-925829Y4669789D01*
X-1176020Y4669789D02*
G01*
X-1176020Y4594605D01*
X-1355852Y4594605D01*
X-1355852Y4669789D01*
X-1176020Y4669789D01*
X-595884Y4444745D02*
G01*
X-670813Y4444745D01*
X-670813Y4149597D01*
X-975868Y4149597D01*
X-1280921Y4149597D01*
X-1280921Y4444745D01*
X-1355852Y4444745D01*
X-1510284Y4682489D02*
G01*
X-1690370Y4682489D01*
X-1690370Y4607305D01*
X-1510284Y4607305D01*
X-1510284Y4682489D01*
X-1510284Y4087368D01*
X-2270252Y4087368D01*
X-2270252Y4682489D01*
X-1510284Y4682489D01*
X-1840229Y4682489D02*
G01*
X-1840229Y4607305D01*
X-1940305Y4607305D01*
X-1940305Y4682489D01*
X-1840229Y4682489D01*
X-2090420Y4682489D02*
G01*
X-2090420Y4607305D01*
X-2270252Y4607305D01*
X-2270252Y4682489D01*
X-2090420Y4682489D01*
X-1510284Y4457445D02*
G01*
X-1585213Y4457445D01*
X-1585213Y4162297D01*
X-1890268Y4162297D01*
X-2195321Y4162297D01*
X-2195321Y4457445D01*
X-2270252Y4457445D01*
X4089400Y-1358900D02*
G01*
X4089400Y-138912D01*
X4659401Y-138912D01*
X4659401Y-1358900D01*
X4089400Y-1358900D01*
D13*
X2705100Y1828800D02*
G01*
X-1694891Y1828800D01*
X-1694891Y3928795D01*
X2705100Y3928795D01*
X2705100Y1828800D01*
D14*
X1708150Y1911350D02*
G01*
X958850Y1911350D01*
X958850Y2406650D01*
X1708150Y2406650D01*
X1708150Y1911350D01*
X1644650Y2419350D02*
G01*
X1606550Y2419350D01*
X1606550Y2736850D01*
X1644650Y2736850D01*
X1644650Y2419350D01*
X1047750Y2419350D02*
G01*
X1009650Y2419350D01*
X1009650Y2736850D01*
X1047750Y2736850D01*
X1047750Y2419350D01*
X1339850Y2419350D02*
G01*
X1301750Y2419350D01*
X1301750Y2736850D01*
X1339850Y2736850D01*
X1339850Y2419350D01*
X1492250Y2419350D02*
G01*
X1454150Y2419350D01*
X1454150Y2736850D01*
X1492250Y2736850D01*
X1492250Y2419350D01*
X1200150Y2419350D02*
G01*
X1162050Y2419350D01*
X1162050Y2736850D01*
X1200150Y2736850D01*
X1200150Y2419350D01*
X660400Y2603500D02*
G01*
X-584200Y2603500D01*
X-584200Y3860800D01*
X660400Y3860800D01*
X660400Y2603500D01*
X419100Y2095500D02*
G01*
X-533400Y2095500D01*
X-533400Y2425700D01*
X419100Y2425700D01*
X419100Y2095500D01*
X1917700Y3619500D02*
G01*
X1524000Y3619500D01*
X1524000Y3746500D01*
X1917700Y3746500D01*
X1917700Y3619500D01*
G75*
G01*
X5054597Y-4330708D02*
G02*
X4800597Y-4584708I-254000J0D01*
G75*
G01*
X3530597Y-4584708D02*
G02*
X3276597Y-4330708I0J254000D01*
G75*
G01*
X3276597Y-2933708D02*
G02*
X3530597Y-2679708I254000J0D01*
G75*
G01*
X4800597Y-2679708D02*
G02*
X5054597Y-2933708I0J-254000D01*
D10*
G75*
G01*
X3617516Y-3238508D02*
G03*
X3617516Y-3238101I78181J204D01*
G75*
G01*
X4700953Y-3238508D02*
G03*
X4700953Y-3238914I-78181J-203D01*
G75*
G01*
X3730597Y-2933708D02*
G03*
X3730597Y-2934190I-199999J-241D01*
G75*
G01*
X5000597Y-2933708D02*
G03*
X5000597Y-2934190I-199999J-241D01*
D14*
G75*
G01
X2475636Y2857500D02*
G03X2475636Y2857500I-278536J0D01*
G75*
G01
X-1109777Y2870200D02*
G03X-1109777Y2870200I-261823J0D01*
G75*
G01
X597484Y3238500D02*
G03X597484Y3238500I-559384J0D01*
G75*
G01
X361594Y2209800D02*
G03X361594Y2209800I-56794J0D01*
M02*
